<svg height="100%" version="1.1" width="100%" xmlns="http://www.w3.org/2000/svg" preserveAspectRatio="xMidYMid meet" viewBox="0 0 600 442" xmlns:xlink="http://www.w3.org/1999/xlink"><desc>Created with Snap</desc><defs/><g id="root" contentwidth="296.90000000000003" contentheight="72">
          <rect class="background" height="2000%" width="2000%" y="-1000%" x="-1000%" style="" fill="#ffffff"/>
          <rect class="watermarklayer" height="100%" width="100%" y="0" x="0" style="" fill="none"/>
          <g class="content" id="content" transform="matrix(1,0,0,1,148.85,246.75)">
            <g class="icon" style="mask: url(#mask);">
            <svg height="72" version="1.1" width="72" xmlns="http://www.w3.org/2000/svg" x="227.6" y="-61.75"><desc>Created with Snap</desc><defs/><svg xmlns="http://www.w3.org/2000/svg" class="icon" fill="#2a4983" preserveAspectRatio="xMidYMid meet" version="1.0" viewBox="0 0 512 512">

<g stroke="none" transform="translate(0.000000,512.000000) scale(0.100000,-0.100000)">
<path d="M875 4837 c-80 -52 -114 -79 -119 -94 -4 -9 -2 -11 7 -7 6 5 -1 -9 -16 -29 -28 -37 -37 -59 -42 -107 -1 -14 -3 -29 -4 -33 -2 -13 -45 -25 -52 -15 -4 6 -15 6 -29 -2 -15 -8 -20 -8 -16 -1 9 13 4 14 -28 2 -17 -7 -26 -7 -28 1 -3 7 -15 5 -36 -6 -18 -9 -32 -12 -32 -6 0 25 -48 6 -95 -37 -40 -39 -43 -40 -12 -8 20 23 37 43 37 47 0 3 -21 -5 -47 -18 -26 -12 -50 -19 -53 -14 -3 4 -31 -12 -62 -36 -34 -25 -54 -36 -51 -26 4 9 -17 -4 -47 -30 -29 -26 -58 -44 -63 -41 -6 3 -7 1 -4 -4 4 -6 -2 -22 -14 -34 -11 -13 -17 -17 -13 -9 7 13 6 13 -10 1 -9 -8 -15 -20 -12 -28 3 -7 -3 -28 -14 -46 -21 -34 -25 -87 -14 -171 4 -29 11 -45 18 -43 7 3 13 -6 14 -19 2 -24 82 -114 101 -114 6 0 11 -7 11 -16 0 -8 5 -12 11 -9 6 4 13 -2 16 -14 3 -11 9 -18 14 -15 5 3 9 -7 9 -21 0 -14 4 -24 9 -21 12 8 21 -17 15 -42 -4 -14 0 -21 15 -25 12 -3 21 -13 21 -22 0 -11 5 -15 14 -12 9 4 17 -2 21 -14 6 -16 9 -18 21 -8 9 7 14 8 13 3 -4 -23 2 -36 16 -30 9 3 15 0 15 -10 0 -10 6 -14 15 -10 8 3 15 1 15 -4 0 -6 7 -10 15 -10 8 0 15 -5 15 -11 0 -6 6 -9 14 -6 8 3 17 -1 20 -9 3 -9 10 -13 15 -10 5 3 12 -1 15 -10 3 -9 12 -14 19 -11 8 3 19 -4 26 -15 7 -11 18 -17 26 -14 8 3 17 -3 20 -15 7 -22 16 -24 34 -6 9 7 12 8 7 0 -9 -16 3 -43 20 -43 8 0 14 -7 14 -16 0 -8 5 -12 10 -9 6 3 10 -3 10 -14 0 -12 5 -21 10 -21 6 0 10 -9 10 -21 0 -11 5 -17 10 -14 6 4 10 -5 10 -20 0 -15 4 -24 10 -20 6 4 10 -7 10 -25 0 -18 4 -29 10 -25 5 3 10 -3 10 -14 0 -28 11 -52 21 -46 4 3 12 -9 17 -27 5 -18 14 -32 20 -31 5 1 15 -11 21 -28 6 -17 15 -28 21 -24 5 3 10 -3 10 -14 0 -21 34 -64 43 -54 3 2 8 -5 12 -16 3 -12 11 -19 16 -16 5 4 9 1 9 -4 0 -14 37 -51 43 -44 3 2 8 -5 12 -17 4 -12 13 -19 20 -17 7 3 18 -6 24 -20 7 -14 17 -23 25 -20 8 3 19 -5 27 -19 8 -15 18 -23 27 -19 13 5 14 -11 8 -110 -5 -80 -4 -115 3 -115 6 0 11 -12 11 -27 0 -21 -3 -24 -9 -14 -8 12 -12 10 -22 -11 -6 -15 -17 -24 -24 -22 -7 3 -23 -7 -35 -23 -12 -15 -25 -28 -28 -28 -4 0 -7 -23 -7 -52 -1 -60 -9 -74 -29 -48 -8 11 -20 16 -30 12 -9 -4 -16 -3 -16 2 0 4 -13 8 -30 8 -16 0 -30 -4 -30 -8 0 -5 -6 -6 -13 -3 -8 3 -26 -7 -40 -22 -15 -15 -27 -21 -27 -15 0 7 -4 9 -10 6 -5 -3 -10 -19 -10 -35 0 -23 -4 -28 -16 -23 -9 3 -20 0 -24 -7 -8 -12 -26 -18 -70 -21 -8 -1 -23 -9 -34 -18 -10 -9 -21 -15 -25 -13 -3 2 -8 -5 -11 -15 -3 -11 -14 -18 -30 -18 -14 0 -40 -8 -58 -17 -23 -13 -32 -14 -32 -5 0 8 -3 8 -9 -2 -5 -8 -23 -16 -39 -17 -23 -3 -31 1 -35 16 -6 25 -37 27 -38 3 0 -12 -4 -10 -10 7 -8 24 -13 25 -62 23 -63 -4 -78 -6 -94 -16 -7 -5 -17 -6 -22 -3 -5 3 -11 -4 -14 -15 -3 -12 -10 -18 -16 -15 -5 4 -12 -3 -16 -14 -4 -11 -11 -18 -16 -14 -5 3 -12 -8 -15 -25 -4 -17 -10 -31 -15 -31 -5 0 -9 -15 -8 -32 1 -39 27 -114 29 -83 1 16 4 14 14 -10 20 -44 45 -74 46 -55 0 8 8 2 16 -13 8 -16 21 -26 27 -24 7 2 20 0 30 -5 11 -6 17 -5 17 2 0 8 6 8 20 0 11 -6 20 -7 20 -2 0 4 18 7 40 6 29 -1 40 2 40 12 0 8 7 14 16 14 9 0 18 9 21 19 3 12 11 17 19 14 8 -3 17 3 20 13 4 11 16 29 27 41 15 17 23 20 34 12 10 -9 13 -8 13 1 0 7 8 10 20 7 11 -3 20 -2 20 1 0 4 33 7 74 8 43 0 81 5 89 12 8 7 22 10 31 6 12 -5 16 0 16 17 l0 23 16 -22 c15 -22 11 -47 -6 -37 -5 3 -15 -3 -22 -12 -7 -10 -17 -18 -23 -19 -21 -1 -65 -24 -65 -33 0 -6 -7 -8 -15 -5 -8 4 -15 1 -15 -5 0 -6 -7 -11 -15 -11 -9 0 -18 -7 -21 -15 -4 -8 -10 -12 -15 -9 -5 3 -12 -2 -15 -10 -3 -9 -10 -13 -16 -10 -5 3 -12 -3 -15 -15 -3 -11 -9 -18 -15 -15 -5 3 -15 0 -23 -6 -11 -9 -15 -9 -15 -1 0 16 -16 14 -34 -5 -9 -8 -16 -11 -16 -5 0 19 -22 12 -27 -9 -3 -11 -10 -17 -15 -14 -12 7 -73 -55 -82 -84 -4 -12 -12 -22 -17 -22 -5 0 -9 -10 -9 -23 0 -29 56 -118 72 -115 6 2 21 -11 32 -28 23 -33 76 -45 76 -16 0 12 4 12 25 -2 30 -19 39 -20 32 -3 -3 9 3 13 17 13 11 -1 20 4 19 10 -1 7 6 10 17 7 14 -4 20 0 20 11 0 10 8 16 21 16 16 0 20 5 16 19 -3 15 0 17 16 13 16 -4 19 -1 15 16 -4 15 -2 19 8 15 8 -3 14 1 14 10 0 8 7 17 15 21 8 3 15 12 15 21 0 8 7 15 15 15 8 0 15 5 15 10 0 6 9 10 21 10 14 0 19 5 16 13 -4 10 2 13 19 9 14 -2 24 0 24 7 0 6 9 11 20 11 11 0 20 6 20 14 0 9 7 12 20 9 11 -3 20 0 20 6 0 6 9 11 20 11 11 0 20 5 20 10 0 6 7 10 15 10 8 0 15 5 15 10 0 6 7 10 15 10 8 0 15 7 15 15 0 8 7 15 15 15 8 0 15 5 15 10 0 6 7 10 15 10 8 0 15 7 15 15 0 8 5 15 11 15 16 0 69 52 63 62 -3 4 4 8 15 8 12 0 21 7 21 15 0 17 19 21 21 5 1 -5 2 -16 3 -22 1 -7 -2 -16 -7 -19 -23 -16 49 -159 72 -144 5 2 21 -9 37 -26 15 -16 34 -27 41 -25 7 3 18 -5 24 -17 11 -21 11 -21 -6 -7 -17 14 -18 13 -13 -16 2 -18 -1 -36 -10 -43 -7 -7 -11 -19 -8 -27 3 -8 1 -14 -3 -14 -21 0 6 -45 66 -113 62 -68 113 -109 113 -88 0 5 9 7 20 4 11 -3 20 -10 20 -15 0 -5 -9 -7 -19 -3 -11 3 -22 1 -26 -4 -3 -6 -20 -8 -37 -4 -27 5 -30 4 -25 -11 5 -13 -1 -11 -23 8 -18 14 -37 23 -46 19 -12 -5 -10 -11 13 -36 15 -17 -2 -4 -39 30 -84 77 -153 119 -171 105 -7 -6 -18 -8 -24 -4 -7 4 -25 7 -40 6 -22 -1 -28 -6 -27 -23 0 -15 -3 -18 -10 -11 -16 16 -26 12 -26 -11 0 -18 -2 -19 -15 -9 -15 12 -16 11 -19 -22 -1 -7 -12 -23 -25 -35 -17 -17 -22 -29 -17 -48 4 -14 2 -25 -4 -25 -14 0 6 -47 36 -84 42 -50 114 -105 129 -100 8 3 21 2 29 -3 12 -7 11 -12 -10 -30 -13 -12 -24 -18 -24 -15 0 4 -6 0 -13 -9 -7 -8 -20 -18 -29 -22 -11 -4 -15 -12 -12 -22 4 -10 2 -15 -7 -13 -17 4 -21 -117 -5 -147 6 -11 10 -24 11 -28 0 -13 58 -57 67 -51 4 3 25 -7 46 -21 33 -21 46 -25 81 -19 22 4 41 10 41 14 0 4 9 10 21 13 12 3 18 10 14 16 -4 7 4 11 19 11 14 0 26 5 26 10 0 6 14 10 31 10 18 0 28 4 24 10 -7 12 129 3 155 -9 23 -11 169 -4 184 9 8 6 26 8 42 4 19 -5 25 -4 20 5 -5 7 5 11 33 11 24 0 41 5 41 11 0 8 17 10 56 5 36 -4 53 -3 49 4 -8 13 -4 13 51 -1 25 -7 44 -17 44 -25 0 -8 8 -14 18 -14 14 0 15 2 2 10 -21 14 1 13 130 -4 115 -15 229 -11 245 8 6 7 25 18 42 25 18 7 30 17 28 22 -3 4 13 14 35 20 22 7 36 15 30 19 -5 3 6 12 25 19 20 7 33 16 30 21 -2 4 9 13 25 20 16 7 27 16 24 21 -3 5 -1 9 5 9 6 0 24 14 41 30 17 17 35 30 40 30 6 0 10 5 10 12 0 6 15 24 33 39 25 22 28 28 14 29 -13 0 -6 11 27 39 25 21 42 42 39 45 -4 3 4 18 18 32 18 19 20 27 11 33 -10 6 -10 11 2 21 9 7 13 16 10 21 -3 5 -2 15 3 22 16 25 23 87 10 87 -6 0 -2 9 8 20 11 12 13 20 6 20 -7 0 -9 9 -5 27 6 21 4 25 -8 21 -11 -5 -10 3 5 34 15 29 17 42 9 47 -17 10 9 43 38 48 12 2 36 13 54 24 l31 21 -33 -29 c-18 -15 -32 -31 -32 -34 0 -12 95 3 120 19 14 9 50 38 80 66 53 48 52 47 -10 -18 l-65 -69 57 42 c31 22 62 41 68 41 14 0 12 -15 -4 -29 -10 -8 -13 -33 -12 -89 1 -42 -2 -82 -6 -88 -12 -17 7 -69 25 -68 14 1 14 -1 1 -21 -13 -19 -12 -23 4 -38 17 -15 20 -15 43 0 20 13 19 11 -5 -12 -27 -27 -28 -29 -11 -41 10 -7 23 -10 29 -7 6 4 5 -1 -3 -10 -11 -14 -11 -18 3 -23 9 -3 16 -12 16 -20 0 -8 5 -14 11 -14 5 0 7 -5 4 -10 -3 -6 1 -10 9 -10 9 0 16 -4 16 -10 0 -5 7 -10 16 -10 8 0 12 -4 9 -10 -3 -5 3 -10 15 -10 13 0 19 -4 14 -11 -5 -8 3 -10 24 -7 39 6 33 -12 -16 -40 -20 -12 -52 -31 -70 -43 -18 -12 -32 -18 -31 -13 4 24 -2 36 -16 30 -8 -3 -15 -1 -15 5 0 24 -28 39 -54 30 -17 -7 -26 -7 -28 1 -6 17 -62 -8 -96 -41 -15 -15 -40 -34 -55 -44 -17 -11 -26 -24 -23 -33 3 -8 0 -14 -5 -14 -6 0 -9 -9 -6 -20 3 -11 1 -23 -4 -26 -6 -3 -5 -11 2 -20 6 -8 9 -17 5 -21 -3 -4 6 -15 21 -25 16 -10 24 -18 19 -18 -5 0 -3 -7 4 -15 7 -8 24 -15 37 -15 21 0 23 -3 14 -14 -21 -25 34 -29 79 -6 47 24 47 24 47 6 0 -8 -5 -12 -12 -10 -16 7 -141 -52 -157 -74 -24 -33 -138 -68 -138 -42 0 6 -9 10 -20 10 -11 0 -20 7 -20 15 0 20 -33 19 -77 -2 -41 -19 -83 -55 -83 -71 0 -5 -7 -13 -16 -16 -8 -3 -13 -10 -9 -15 3 -5 1 -12 -4 -16 -19 -11 -7 -46 17 -52 16 -4 20 -8 12 -13 -9 -6 -7 -11 9 -19 l21 -12 -20 -21 c-13 -14 -16 -24 -9 -29 6 -3 1 -9 -13 -12 -35 -10 -38 -9 -48 19 -10 24 -12 25 -72 18 -68 -7 -106 -32 -71 -46 11 -4 2 -7 -25 -7 -37 -1 -49 -7 -83 -42 -21 -22 -37 -45 -33 -50 3 -5 1 -9 -4 -9 -6 0 -10 -15 -10 -32 0 -18 -1 -37 -2 -43 -6 -27 14 -54 44 -61 23 -5 27 -8 14 -13 -15 -5 -12 -9 12 -19 17 -8 28 -17 25 -22 -7 -12 49 -20 144 -20 88 0 199 28 194 49 -4 18 27 32 92 42 62 8 139 37 105 39 -8 0 20 15 63 32 43 17 73 34 68 38 -6 3 15 18 45 33 31 16 54 31 50 34 -8 8 50 43 71 43 15 0 15 -2 -2 -13 -21 -16 -30 -67 -12 -67 7 0 6 -4 -2 -9 -12 -7 -12 -13 -3 -24 7 -7 10 -16 7 -19 -3 -3 1 -11 9 -17 8 -7 13 -18 10 -25 -3 -9 6 -16 26 -20 17 -3 29 -10 25 -16 -3 -5 12 -12 34 -16 23 -4 39 -10 36 -13 -6 -11 57 -1 92 15 17 8 37 14 44 14 22 0 121 83 108 91 -6 4 -10 18 -7 33 3 14 1 26 -5 26 -5 0 24 22 65 49 41 27 78 55 81 64 3 8 48 40 101 71 52 31 98 60 101 66 3 5 11 10 17 10 6 0 5 -7 -3 -17 -39 -49 169 110 267 204 33 32 80 81 103 108 24 28 34 36 22 18 -11 -17 -21 -34 -21 -37 0 -11 176 188 209 237 17 26 34 47 37 47 3 0 2 -5 -2 -12 -5 -7 -3 -8 5 -4 7 5 10 15 7 23 -3 8 -2 12 3 9 9 -6 90 124 151 242 18 34 36 62 40 62 11 0 65 117 98 216 54 157 86 483 62 618 -10 53 -15 66 -21 51 l-8 -20 -1 20 c-1 23 -23 55 -37 55 -5 0 -16 11 -23 25 -14 26 -30 33 -30 14 0 -7 -10 1 -23 17 l-22 29 -6 -70 -5 -70 -2 66 c-1 45 -7 71 -17 79 -8 7 -15 9 -15 5 0 -5 -9 0 -20 10 -11 10 -23 15 -27 12 -3 -4 -12 -2 -20 4 -10 9 -13 7 -13 -6 0 -14 -3 -15 -15 -5 -9 7 -18 10 -22 7 -3 -4 -12 -2 -18 3 -9 8 -14 6 -18 -5 -4 -8 -13 -12 -20 -9 -8 3 -17 -2 -20 -10 -4 -9 -16 -16 -27 -16 -11 0 -20 -7 -20 -15 0 -9 -9 -15 -25 -15 -13 0 -28 -8 -34 -17 -17 -31 -32 -3 -21 37 6 19 10 57 10 85 0 36 3 46 10 35 8 -12 10 -11 10 8 0 12 -6 22 -14 22 -8 0 -25 28 -39 63 -15 34 -26 55 -27 47 0 -8 -11 5 -24 29 -25 48 -24 73 6 103 10 10 18 25 18 34 0 8 7 22 15 30 8 9 15 30 15 47 0 25 3 29 10 17 8 -12 9 -9 5 10 -2 14 -7 45 -9 70 -5 49 -22 96 -63 177 -26 53 -83 117 -83 94 0 -6 -17 4 -37 24 -21 20 -39 32 -41 26 -2 -6 -19 1 -38 15 -19 15 -34 21 -34 15 0 -7 -9 -6 -25 5 -13 8 -29 13 -34 9 -6 -3 -20 -1 -31 5 -14 8 -20 8 -20 0 0 -7 -8 -7 -22 2 -26 14 -90 19 -82 6 3 -4 -6 -4 -20 2 -20 7 -26 6 -26 -4 0 -8 -11 -12 -32 -11 -27 2 -53 22 -152 119 -169 166 -290 254 -476 347 -61 30 -86 36 -75 18 4 -5 -10 -3 -31 6 -134 56 -382 111 -569 126 -84 7 -148 17 -160 25 -11 8 -41 14 -66 14 -26 0 -49 5 -51 10 -2 6 -27 13 -56 17 -29 3 -48 9 -42 13 15 9 -23 20 -72 20 -29 0 -36 3 -32 15 4 10 -1 16 -17 17 -13 1 -31 2 -39 4 -8 1 -21 2 -28 3 -7 1 -11 5 -8 10 7 11 -17 21 -49 21 -13 0 -25 4 -27 9 -4 11 -123 51 -154 51 -17 0 -23 4 -18 12 5 7 2 9 -7 6 -18 -7 -92 25 -82 35 3 4 -12 7 -35 7 -23 0 -42 4 -42 9 0 5 -8 8 -17 6 -10 -2 -37 -6 -61 -9 -36 -3 -41 -2 -31 10 9 11 7 14 -12 14 -13 0 -41 -4 -62 -9 -29 -7 -36 -6 -28 3 6 7 6 18 1 25 -4 8 -6 20 -3 28 3 7 -2 13 -11 13 -10 0 -13 6 -10 15 4 8 1 15 -5 15 -6 0 -11 5 -11 10 0 6 -9 20 -20 32 -11 12 -20 28 -20 35 0 7 -7 13 -15 13 -9 0 -12 6 -9 15 5 11 -1 15 -21 15 -23 0 -25 3 -16 14 10 12 6 15 -18 21 -17 3 -29 12 -28 18 1 7 -10 13 -26 15 -15 2 -25 8 -22 13 4 5 -5 9 -19 9 -14 0 -26 5 -26 10 0 6 -46 10 -117 10 -103 0 -123 -3 -153 -21 l-35 -21 19 21 c26 29 19 27 -39 -12z m215 -52 c0 -2 -10 -9 -22 -15 -22 -11 -22 -10 -4 4 21 17 26 19 26 11z m70 -9 c0 -2 -7 -7 -16 -10 -8 -3 -12 -2 -9 4 6 10 25 14 25 6z m-145 -42 c-33 -28 -65 -47 -65 -40 0 6 82 65 90 65 3 0 -8 -11 -25 -25z m90 10 c-11 -8 -62 -46 -114 -84 -150 -111 -321 -265 -422 -381 -30 -35 -64 -72 -76 -84 -13 -12 -23 -27 -23 -33 0 -6 -8 -17 -18 -24 -11 -7 -24 -23 -30 -35 -15 -28 -132 -183 -138 -183 -21 0 143 226 261 361 113 128 316 308 460 405 60 41 111 74 115 74 3 -1 -4 -8 -15 -16z m114 12 c-2 -3 -40 -28 -84 -57 -174 -113 -436 -345 -570 -504 -58 -68 -181 -230 -201 -263 -17 -30 -34 -42 -34 -24 0 5 28 49 62 98 189 274 440 516 721 694 77 49 125 74 106 56z m-259 -10 c0 -8 -182 -147 -186 -143 -4 4 175 146 184 147 1 0 2 -2 2 -4z m280 -41 c-7 -8 -18 -15 -24 -15 -6 0 -2 7 8 15 25 19 32 19 16 0z m70 -10 c0 -2 -13 -11 -30 -20 -38 -19 -40 -11 -2 9 31 17 32 18 32 11z m-370 -9 c0 -2 -8 -10 -17 -17 -16 -13 -17 -12 -4 4 13 16 21 21 21 13z m260 0 c0 -2 -35 -29 -77 -59 -156 -109 -274 -208 -399 -337 -116 -119 -135 -141 -186 -212 -23 -32 -45 -58 -49 -58 -5 0 -9 -5 -9 -11 0 -7 -16 -31 -35 -55 -19 -23 -35 -47 -35 -53 0 -6 -7 -11 -16 -11 -18 0 -17 1 44 90 177 256 413 484 687 664 72 47 75 49 75 42z m-335 -62 c-22 -20 -50 -45 -63 -56 -12 -12 -25 -18 -28 -15 -5 5 115 107 126 107 3 0 -13 -17 -35 -36z m370 28 c-6 -5 -48 -35 -95 -67 -47 -32 -99 -70 -116 -84 -17 -14 -48 -39 -69 -56 -46 -36 -180 -161 -243 -227 -41 -43 -218 -266 -254 -320 -9 -13 -19 -20 -22 -17 -3 3 13 32 36 65 181 255 412 481 665 650 85 57 125 79 98 56z m65 -7 c0 -2 -10 -9 -22 -15 -22 -11 -22 -10 -4 4 21 17 26 19 26 11z m-70 -39 c0 -2 -46 -37 -102 -77 -109 -78 -114 -82 -247 -200 -84 -75 -187 -185 -266 -284 -22 -27 -45 -56 -52 -63 -7 -7 -29 -38 -49 -68 -20 -30 -39 -53 -41 -50 -7 7 87 140 167 236 141 168 303 314 490 444 99 68 100 69 100 62z m70 -1 c0 -2 -10 -9 -22 -15 -22 -11 -22 -10 -4 4 21 17 26 19 26 11z m-50 -29 c0 -2 -18 -15 -40 -30 -22 -14 -40 -24 -40 -22 0 5 71 56 77 56 2 0 3 -2 3 -4z m130 -1 c0 -2 -10 -9 -22 -15 -22 -11 -22 -10 -4 4 21 17 26 19 26 11z m-100 -20 c0 -2 -10 -9 -22 -15 -22 -11 -22 -10 -4 4 21 17 26 19 26 11z m50 -8 c0 -6 -97 -67 -106 -67 -5 0 16 16 46 35 54 35 60 38 60 32z m30 -32 c-30 -19 -59 -35 -65 -35 -13 0 97 69 110 70 5 0 -15 -16 -45 -35z m-138 3 c-6 -7 -25 -22 -44 -32 -39 -23 -32 -13 14 20 38 26 45 29 30 12z m-92 -28 c-39 -32 -90 -64 -90 -56 0 6 111 86 119 86 3 0 -10 -14 -29 -30z m285 5 c-27 -22 -55 -33 -55 -20 0 5 71 44 80 44 3 0 -8 -11 -25 -24z m-811 -117 c-60 -62 -111 -115 -115 -118 -12 -10 -202 -268 -225 -307 -7 -10 -14 -16 -17 -13 -8 8 102 169 189 275 81 101 264 289 272 280 3 -3 -44 -56 -104 -117z m-174 99 c0 -2 -10 -12 -22 -23 l-23 -19 19 23 c18 21 26 27 26 19z m204 -9 c-5 -7 -43 -49 -86 -94 -74 -76 -201 -229 -237 -284 -8 -14 -20 -30 -26 -36 -5 -6 -21 -30 -35 -52 -14 -23 -29 -42 -33 -42 -10 0 -7 5 55 97 89 134 335 423 360 423 5 0 6 -6 2 -12z m865 7 c-9 -8 -79 -35 -79 -30 0 7 53 34 69 35 8 0 12 -2 10 -5z m-919 -10 c0 -3 -15 -21 -33 -39 -46 -46 -197 -223 -231 -271 -15 -22 -48 -70 -73 -108 -26 -37 -48 -65 -51 -63 -12 13 132 213 260 359 93 107 128 140 128 122z m975 -18 c-45 -26 -75 -39 -75 -32 0 6 92 54 105 54 6 1 -8 -10 -30 -22z m-1045 -6 c-5 -11 -13 -21 -17 -23 -5 -1 -35 -34 -68 -73 -33 -38 -64 -75 -70 -81 -5 -6 -50 -68 -99 -137 -50 -70 -92 -124 -95 -122 -13 14 200 297 302 403 56 57 63 62 47 33z m-111 -73 c-36 -40 -85 -100 -109 -133 -25 -33 -47 -62 -50 -65 -3 -3 -26 -35 -50 -72 -25 -38 -48 -68 -53 -68 -26 0 159 252 277 377 66 70 54 39 -15 -39z m1192 52 c-30 -17 -59 -30 -65 -30 -13 1 94 59 109 59 6 1 -14 -13 -44 -29z m-1271 6 c0 -2 -8 -10 -17 -17 -16 -13 -17 -12 -4 4 13 16 21 21 21 13z m905 -2 c13 -5 7 -13 -27 -36 -24 -16 -68 -42 -99 -58 -30 -15 -61 -35 -68 -44 -8 -9 -18 -16 -24 -16 -6 0 0 12 14 28 l24 27 -27 -24 c-15 -13 -25 -28 -22 -33 7 -11 -37 -64 -93 -110 -47 -40 -161 -174 -252 -296 -59 -80 -82 -92 -30 -15 65 96 125 170 214 263 103 109 152 165 119 137 -11 -9 -24 -17 -29 -17 -10 0 -142 -137 -194 -200 -20 -25 -40 -50 -46 -57 -5 -6 -35 -45 -65 -86 -30 -42 -56 -74 -58 -72 -14 13 167 241 300 380 42 43 75 82 72 85 -11 10 -230 -226 -313 -337 -47 -62 -86 -111 -89 -108 -2 2 31 53 74 112 105 145 355 398 404 408 19 4 51 18 70 31 35 24 77 33 65 14 -4 -6 8 -2 27 10 38 23 32 22 53 14z m98 -5 c18 -8 30 -8 48 1 13 7 21 9 17 5 -4 -5 -3 -14 2 -20 14 -17 -60 -65 -100 -65 -40 0 -38 13 6 40 19 12 33 24 30 27 -2 3 -24 -8 -48 -25 -42 -28 -125 -51 -112 -31 9 15 107 79 121 79 7 0 23 -5 36 -11z m356 7 c-10 -9 -129 -66 -129 -61 0 6 111 64 124 65 5 0 7 -2 5 -4z m-1314 -33 c-13 -16 -51 -62 -84 -103 -34 -41 -66 -80 -71 -87 -6 -7 -10 -15 -10 -19 0 -4 -16 -26 -35 -50 -19 -23 -35 -47 -35 -53 0 -6 -4 -11 -10 -11 -18 0 -11 14 43 91 82 118 197 259 212 259 8 0 5 -10 -10 -27z m1355 12 c-14 -8 -29 -14 -35 -14 -5 0 1 6 15 14 14 8 30 14 35 14 6 0 -1 -6 -15 -14z m-1471 -77 c-27 -35 -70 -93 -95 -130 -39 -60 -64 -84 -64 -60 0 10 118 173 157 216 54 61 56 40 2 -26z m1187 51 c4 -7 -4 -21 -17 -32 l-24 -19 27 16 c34 20 48 20 48 1 0 -8 5 -15 11 -15 16 0 41 -29 34 -40 -3 -6 1 -7 9 -4 22 8 20 -15 -1 -33 -16 -13 -16 -13 4 -4 30 15 36 14 30 -8 -3 -12 1 -18 11 -17 28 2 23 -28 -7 -46 -25 -14 -32 -14 -41 -3 -7 8 -9 19 -5 25 4 6 1 9 -7 8 -7 -2 -12 5 -12 14 1 10 -2 15 -6 13 -5 -3 -20 6 -34 20 -14 14 -30 25 -36 25 -5 0 -10 5 -10 10 0 6 -7 10 -16 10 -9 0 -14 6 -11 13 4 10 -3 12 -24 9 -40 -6 -36 10 9 41 41 29 57 32 68 16z m270 -14 c-11 -8 -25 -15 -30 -15 -6 1 0 7 14 15 32 19 40 18 16 0z m-96 -9 c0 -2 -7 -7 -16 -10 -8 -3 -12 -2 -9 4 6 10 25 14 25 6z m150 0 c0 -5 -130 -66 -139 -65 -5 0 129 69 136 69 2 0 3 -2 3 -4z m-125 -26 c-3 -5 -14 -10 -23 -9 -14 0 -13 2 3 9 27 11 27 11 20 0z m184 6 c-19 -16 -170 -83 -174 -77 -2 5 32 24 78 44 73 32 109 44 96 33z m136 -6 c-3 -5 -14 -10 -23 -9 -14 0 -13 2 3 9 27 11 27 11 20 0z m-1122 -92 c-133 -135 -208 -223 -283 -332 -33 -48 -50 -68 -50 -58 0 38 380 482 413 482 6 0 -30 -42 -80 -92z m1057 70 c-14 -6 -64 -31 -113 -54 -81 -41 -134 -57 -111 -34 13 13 216 99 234 99 8 0 4 -5 -10 -11z m150 -12 c0 -3 -17 -10 -37 -16 -51 -16 -179 -68 -228 -93 -22 -11 -53 -24 -69 -28 -25 -7 -28 -7 -16 4 38 34 350 152 350 133z m77 -32 c-3 -3 -12 -4 -19 -1 -8 3 -5 6 6 6 11 1 17 -2 13 -5z m-82 -24 c-27 -10 -57 -18 -65 -18 -8 0 8 8 35 18 28 10 57 18 65 18 8 0 -7 -8 -35 -18z m132 -6 c-3 -3 -12 -4 -19 -1 -8 3 -5 6 6 6 11 1 17 -2 13 -5z m-50 -10 c-3 -3 -12 -4 -19 -1 -8 3 -5 6 6 6 11 1 17 -2 13 -5z m-863 -19 c-7 -17 -72 -60 -80 -52 -4 4 74 67 83 67 1 0 0 -7 -3 -15z m695 11 c-4 -4 -198 -91 -229 -103 -11 -4 -12 -3 -4 6 6 6 57 32 115 56 93 40 131 53 118 41z m278 -2 c-3 -3 -12 -4 -19 -1 -8 3 -5 6 6 6 11 1 17 -2 13 -5z m-923 -26 c-4 -7 -2 -8 5 -4 12 8 41 -15 41 -32 0 -6 6 -12 13 -15 9 -3 9 -9 0 -25 -11 -18 -10 -19 10 -14 20 5 21 4 7 -13 -19 -24 -90 -75 -103 -75 -6 0 -2 9 8 20 22 24 19 25 -31 4 l-39 -16 20 21 19 22 -27 -10 c-29 -11 -35 -3 -14 18 10 11 7 12 -13 6 l-25 -8 20 23 20 23 -24 -6 -23 -6 23 26 c35 38 100 83 110 77 5 -3 6 -10 3 -16z m697 1 c-30 -10 -56 -17 -58 -15 -5 5 77 34 97 34 8 1 -9 -8 -39 -19z m176 15 c-3 -3 -12 -4 -19 -1 -8 3 -5 6 6 6 11 1 17 -2 13 -5z m-40 -10 c-3 -3 -12 -4 -19 -1 -8 3 -5 6 6 6 11 1 17 -2 13 -5z m160 0 c-3 -3 -12 -4 -19 -1 -8 3 -5 6 6 6 11 1 17 -2 13 -5z m-687 -27 c0 -29 -51 -62 -68 -45 -18 18 -15 27 21 48 41 25 47 25 47 -3z m627 17 c-3 -3 -12 -4 -19 -1 -8 3 -5 6 6 6 11 1 17 -2 13 -5z m310 0 c-3 -3 -12 -4 -19 -1 -8 3 -5 6 6 6 11 1 17 -2 13 -5z m-174 -11 c-7 -2 -19 -2 -25 0 -7 3 -2 5 12 5 14 0 19 -2 13 -5z m-463 -16 c-14 -6 -52 -24 -85 -40 -75 -36 -105 -48 -105 -42 0 10 184 94 205 94 6 0 -1 -5 -15 -12z m393 6 c-7 -2 -19 -2 -25 0 -7 3 -2 5 12 5 14 0 19 -2 13 -5z m-196 -9 c-3 -3 -12 -4 -19 -1 -8 3 -5 6 6 6 11 1 17 -2 13 -5z m140 0 c-3 -3 -12 -4 -19 -1 -8 3 -5 6 6 6 11 1 17 -2 13 -5z m-1314 -21 c-4 -10 -23 -34 -42 -54 -35 -35 -57 -61 -135 -159 -20 -25 -50 -62 -66 -82 -17 -20 -30 -41 -30 -46 0 -13 -29 -36 -36 -29 -6 6 77 126 144 207 42 51 163 180 169 180 1 0 -1 -8 -4 -17z m1264 11 c-3 -3 -12 -4 -19 -1 -8 3 -5 6 6 6 11 1 17 -2 13 -5z m281 -1 c-16 -2 -40 -2 -55 0 -16 2 -3 4 27 4 30 0 43 -2 28 -4z m159 1 c-3 -3 -12 -4 -19 -1 -8 3 -5 6 6 6 11 1 17 -2 13 -5z m-717 -18 c-14 -7 -36 -16 -50 -20 -14 -3 -7 3 15 13 45 22 73 27 35 7z m237 8 c-3 -3 -12 -4 -19 -1 -8 3 -5 6 6 6 11 1 17 -2 13 -5z m201 -1 c-10 -2 -26 -2 -35 0 -10 3 -2 5 17 5 19 0 27 -2 18 -5z m-728 -22 c0 -11 -14 -28 -34 -40 -42 -26 -46 -26 -46 2 0 14 11 29 28 39 36 23 52 22 52 -1z m487 13 c-3 -3 -12 -4 -19 -1 -8 3 -5 6 6 6 11 1 17 -2 13 -5z m103 -14 c-104 -22 -268 -74 -334 -106 -54 -26 -87 -32 -46 -9 81 47 366 134 435 134 17 0 -8 -9 -55 -19z m-250 1 c-8 -5 -26 -11 -40 -15 -21 -5 -20 -3 5 9 32 15 60 20 35 6z m15 -30 c-55 -21 -119 -48 -142 -60 -23 -11 -48 -21 -55 -21 -34 2 246 120 282 119 8 0 -30 -17 -85 -38z m685 20 c107 -12 223 -32 216 -38 -2 -3 -49 3 -103 12 -54 10 -153 18 -220 19 -68 0 -123 4 -123 9 0 10 126 9 230 -2z m-830 -6 c0 -8 -102 -57 -107 -51 -3 2 17 16 44 30 48 25 63 30 63 21z m550 -2 c-29 -3 -170 -30 -270 -50 -14 -3 -29 -9 -35 -13 -5 -4 -26 -11 -45 -15 -19 -4 -41 -11 -50 -15 -48 -26 -93 -41 -108 -38 -21 5 118 60 220 88 100 27 224 48 278 48 38 -1 40 -2 10 -5z m-523 -24 c-22 -11 -41 -18 -44 -15 -3 3 10 12 28 20 50 21 60 18 16 -5z m-227 5 c0 -3 -5 -14 -10 -25 -8 -13 -7 -19 0 -19 8 0 8 -6 0 -20 -6 -11 -8 -20 -5 -20 3 0 0 -10 -7 -22 -7 -13 -13 -25 -13 -28 -2 -18 -40 -68 -48 -63 -6 4 -7 1 -2 -7 8 -13 -15 -35 -91 -90 -23 -16 -44 -27 -47 -24 -3 4 -16 -1 -29 -10 -37 -26 -44 -18 -12 17 l29 32 -36 -33 c-26 -24 -46 -34 -70 -34 -96 -1 -111 7 -64 38 30 19 52 10 33 -14 -7 -9 2 -4 20 11 19 15 42 27 52 27 22 0 126 76 162 118 14 17 28 29 31 26 3 -3 8 0 13 7 4 8 3 10 -4 5 -7 -4 -12 -1 -12 8 0 8 5 18 11 22 6 3 8 15 6 26 -4 14 5 27 35 49 39 28 58 35 58 23z m-721 -41 c-12 -21 -32 -49 -45 -63 -20 -20 -101 -118 -136 -165 -63 -84 -89 -88 -28 -4 89 122 212 269 226 269 2 0 -6 -17 -17 -37z m1940 -12 c52 -12 97 -24 100 -27 3 -4 -7 -4 -24 0 -201 41 -273 48 -440 43 -140 -5 -187 -10 -270 -32 -55 -15 -118 -29 -140 -31 -37 -3 -36 -2 18 16 204 68 525 81 756 31z m68 33 c-3 -3 -12 -4 -19 -1 -8 3 -5 6 6 6 11 1 17 -2 13 -5z m-1133 -19 c-10 -8 -23 -14 -29 -14 -5 0 -1 6 9 14 11 8 24 15 30 15 5 0 1 -7 -10 -15z m1242 -11 c44 -14 120 -45 171 -69 92 -43 271 -153 294 -181 7 -8 -30 13 -82 48 -120 80 -257 149 -384 192 -55 19 -95 35 -89 35 7 1 47 -11 90 -25z m-241 -44 c38 -9 37 -9 -15 -4 -226 20 -392 13 -530 -22 -30 -8 -66 -14 -80 -13 -37 1 68 28 175 44 99 16 381 13 450 -5z m272 -18 c88 -33 257 -114 294 -143 13 -10 -37 12 -111 49 -74 37 -168 78 -207 91 -67 21 -88 31 -63 31 5 0 44 -13 87 -28z m-2216 -94 c-92 -121 -110 -142 -116 -136 -3 3 27 47 66 99 82 108 111 141 117 134 3 -2 -27 -46 -67 -97z m2104 77 c295 -80 590 -274 758 -496 43 -57 44 -58 6 -14 -220 259 -464 416 -784 506 -55 15 -93 28 -85 28 8 1 56 -10 105 -24z m513 -92 c106 -76 204 -164 272 -244 44 -53 38 -48 -36 26 -134 137 -274 245 -391 304 -24 12 -43 24 -43 26 0 12 121 -57 198 -112z m-885 100 c-13 -2 -33 -2 -45 0 -13 2 -3 4 22 4 25 0 35 -2 23 -4z m-115 -10 c-16 -2 -40 -2 -55 0 -16 2 -3 4 27 4 30 0 43 -2 28 -4z m250 0 c-16 -2 -40 -2 -55 0 -16 2 -3 4 27 4 30 0 43 -2 28 -4z m-403 -18 c-88 -17 -116 -17 -50 0 28 7 66 13 85 13 22 0 10 -5 -35 -13z m478 8 c-7 -2 -19 -2 -25 0 -7 3 -2 5 12 5 14 0 19 -2 13 -5z m97 -14 c28 -6 50 -13 47 -15 -2 -2 -33 2 -68 10 -35 8 -56 14 -47 15 9 1 40 -4 68 -10z m-2023 -99 c-36 -44 -67 -86 -70 -92 -2 -7 -8 -10 -12 -6 -6 6 33 63 114 165 14 18 27 29 29 23 2 -5 -26 -45 -61 -90z m183 -4 c-7 -7 -19 0 -40 24 -16 18 -27 37 -24 41 2 4 0 10 -6 14 -5 3 -10 10 -10 15 0 4 20 -13 45 -38 32 -32 42 -49 35 -56z m1037 98 c-3 -3 -12 -4 -19 -1 -8 3 -5 6 6 6 11 1 17 -2 13 -5z m536 -1 c-29 -2 -78 -2 -110 0 -32 2 -8 3 52 3 61 0 87 -1 58 -3z m-843 -7 c0 -2 -9 -6 -20 -9 -11 -3 -18 -1 -14 4 5 9 34 13 34 5z m575 -11 c-88 -13 -135 -13 -59 0 22 4 44 8 49 10 6 2 30 3 55 3 32 0 18 -4 -45 -13z m388 8 c-7 -2 -19 -2 -25 0 -7 3 -2 5 12 5 14 0 19 -2 13 -5z m-868 -13 c-3 -5 -14 -10 -23 -10 -15 0 -15 2 -2 10 20 13 33 13 25 0z m938 3 c-7 -2 -19 -2 -25 0 -7 3 -2 5 12 5 14 0 19 -2 13 -5z m216 -14 c34 -12 60 -23 58 -25 -2 -2 -35 7 -73 20 -38 14 -64 25 -58 25 5 1 38 -8 73 -20z m-441 4 c-21 -2 -55 -2 -75 0 -21 2 -4 4 37 4 41 0 58 -2 38 -4z m275 0 c-7 -2 -19 -2 -25 0 -7 3 -2 5 12 5 14 0 19 -2 13 -5z m-1923 -22 c-5 -11 -28 -41 -50 -66 -22 -25 -45 -55 -51 -66 -6 -12 -13 -18 -16 -16 -9 9 108 167 123 167 3 0 0 -9 -6 -19z m1050 15 c0 -2 -9 -6 -20 -9 -11 -3 -18 -1 -14 4 5 9 34 13 34 5z m469 0 c-2 -2 -40 -6 -84 -9 -51 -3 -65 -2 -40 2 43 9 131 14 124 7z m259 -3 c-10 -2 -28 -2 -40 0 -13 2 -5 4 17 4 22 1 32 -1 23 -4z m189 1 c-3 -3 -12 -4 -19 -1 -8 3 -5 6 6 6 11 1 17 -2 13 -5z m-124 -11 c-7 -2 -19 -2 -25 0 -7 3 -2 5 12 5 14 0 19 -2 13 -5z m-1103 -7 c0 -3 -15 -14 -32 -26 l-33 -22 30 26 c31 27 35 29 35 22z m120 -6 c0 -5 -7 -10 -16 -10 -8 0 -12 5 -9 10 3 6 10 10 16 10 5 0 9 -4 9 -10z m1043 3 c-7 -2 -19 -2 -25 0 -7 3 -2 5 12 5 14 0 19 -2 13 -5z m152 -3 c13 -6 15 -9 5 -9 -8 0 -22 4 -30 9 -18 12 -2 12 25 0z m-2595 -15 c5 3 13 -3 19 -12 6 -10 11 -14 11 -10 0 4 26 -9 58 -30 31 -21 71 -45 87 -53 17 -8 38 -21 49 -30 10 -8 21 -14 25 -13 3 1 24 -3 46 -9 22 -6 43 -12 48 -14 4 -1 8 -2 10 -3 1 -2 13 -4 27 -6 14 -2 39 -9 55 -16 17 -7 32 -13 35 -14 3 0 21 -8 40 -17 19 -9 42 -19 50 -22 8 -3 22 -10 30 -15 17 -11 50 -24 65 -26 6 -1 17 -5 25 -8 52 -22 76 -30 83 -29 4 1 7 -2 7 -8 0 -5 5 -10 11 -10 16 0 81 -31 102 -48 9 -8 20 -12 24 -9 3 4 13 1 22 -6 16 -14 160 -65 196 -70 11 -1 26 -6 33 -11 9 -6 27 4 55 30 l41 39 -27 -37 c-41 -56 -35 -78 10 -36 26 25 40 19 24 -10 -8 -15 -7 -23 3 -32 12 -9 28 1 85 54 143 131 316 237 433 266 26 7 56 9 65 6 12 -5 -12 -17 -78 -39 -53 -18 -102 -37 -110 -43 -22 -18 -102 -57 -120 -59 -30 -3 -205 -145 -179 -145 8 0 2 -12 -14 -29 -20 -20 -24 -30 -14 -33 7 -3 44 24 81 58 111 103 234 178 372 226 90 32 125 40 125 30 0 -5 -39 -22 -86 -37 -90 -29 -196 -80 -275 -130 -62 -40 -181 -152 -169 -160 5 -3 37 19 70 50 108 99 248 179 394 224 38 12 78 21 90 20 21 0 -88 -39 -112 -39 -30 0 -227 -106 -295 -157 -85 -66 -122 -101 -114 -109 3 -3 40 24 83 59 42 36 110 84 151 108 71 40 228 99 303 114 60 12 20 -11 -45 -25 -133 -30 -327 -131 -417 -218 -56 -54 -46 -60 15 -9 69 59 154 112 244 154 75 34 209 74 247 72 12 0 -26 -13 -84 -29 -58 -16 -134 -42 -170 -58 -113 -52 -276 -170 -259 -187 3 -2 23 11 44 31 83 72 295 187 313 169 3 -3 -4 -8 -16 -12 -72 -18 -263 -131 -301 -177 -29 -35 -2 -23 69 31 129 97 332 175 450 172 40 -1 37 -3 -30 -14 -160 -27 -243 -58 -356 -132 -79 -51 -111 -79 -103 -88 3 -2 38 19 79 47 126 86 233 127 390 149 65 9 91 10 105 1 17 -10 14 -12 -22 -13 -96 -3 -158 -15 -258 -47 -63 -21 -194 -91 -228 -123 -18 -16 -18 -19 -4 -25 9 -3 29 3 44 14 62 44 196 103 276 122 96 23 262 30 293 12 23 -14 24 -14 -106 -17 -112 -3 -199 -20 -285 -55 -55 -23 -113 -52 -135 -69 l-25 -19 27 -7 c19 -5 50 5 119 38 116 56 209 77 336 77 117 0 187 -16 311 -69 105 -45 164 -86 238 -163 72 -76 100 -118 145 -213 45 -96 69 -114 37 -27 -34 90 -105 202 -169 265 -32 31 -53 57 -46 57 14 0 91 -77 130 -130 36 -50 88 -155 108 -219 19 -62 43 -83 33 -29 -4 18 -11 37 -15 43 -5 5 -9 15 -9 22 0 25 -61 143 -106 203 -24 33 -40 60 -34 60 15 0 75 -88 113 -165 34 -69 46 -101 67 -182 13 -51 35 -60 25 -10 -16 69 -59 185 -92 245 -41 73 -38 97 2 27 39 -66 81 -178 98 -263 15 -74 22 -90 32 -80 12 12 -36 209 -66 272 -17 37 -29 70 -25 73 8 8 59 -107 79 -177 9 -30 20 -88 26 -128 10 -78 16 -92 30 -76 15 15 -25 221 -55 291 -16 37 -17 43 -5 43 11 0 54 -130 70 -208 6 -29 11 -79 11 -111 0 -45 5 -64 20 -82 l21 -24 -5 100 c-3 61 -15 137 -30 194 -18 68 -21 91 -11 80 30 -30 57 -160 62 -299 5 -123 12 -160 33 -160 23 0 2 301 -27 378 -19 52 -9 69 12 19 26 -62 46 -207 44 -326 -1 -109 -2 -115 -26 -135 -56 -47 -108 -120 -97 -138 5 -7 2 -8 -6 -3 -9 6 -10 1 -5 -16 5 -18 4 -20 -4 -9 -8 11 -14 4 -31 -35 -11 -26 -18 -55 -15 -64 3 -8 3 -12 -1 -8 -7 7 -49 -89 -61 -141 -3 -12 -10 -25 -16 -29 -6 -4 -7 -1 -1 8 10 17 -63 -40 -91 -71 -21 -23 -55 -45 -55 -35 0 3 16 21 35 39 l34 34 -25 5 c-20 3 -39 -7 -88 -49 -35 -30 -66 -54 -70 -54 -4 0 16 20 46 46 29 25 52 48 51 52 -4 11 -67 11 -81 0 -9 -8 -11 -7 -6 6 3 9 2 16 -4 16 -6 0 -3 21 8 50 10 27 16 59 13 70 -3 11 0 27 7 35 11 13 10 14 -4 9 -11 -4 -16 -1 -16 14 0 21 -22 45 -33 37 -4 -3 -5 -2 -2 1 2 4 -2 19 -10 34 -11 21 -11 30 -2 41 10 11 9 11 -5 0 -20 -15 -17 -17 -137 99 -37 36 -74 80 -82 98 -7 17 -17 32 -21 32 -4 0 -14 13 -22 28 -33 63 -153 182 -249 247 -37 25 -67 41 -67 37 0 -5 -15 -8 -34 -8 -19 1 -32 4 -30 8 5 8 -61 2 -76 -7 -5 -3 -20 -8 -31 -10 -83 -16 -125 -209 -72 -327 15 -33 17 -45 8 -42 -44 17 -63 186 -31 277 10 27 15 51 13 53 -3 3 -19 -14 -36 -38 -25 -34 -31 -52 -31 -92 0 -60 -19 -102 -21 -46 0 19 -4 44 -9 55 -7 19 -8 19 -14 -5 -9 -37 35 -189 75 -255 48 -79 85 -115 165 -158 78 -41 71 -51 -7 -11 -28 14 -53 23 -56 21 -6 -6 44 -41 87 -61 l35 -16 -35 5 c-19 3 -29 2 -22 -1 6 -3 12 -13 12 -22 -1 -14 -3 -14 -15 3 -68 95 -191 166 -328 191 -20 3 -40 10 -43 15 -3 5 -14 9 -25 9 -11 0 -22 7 -25 15 -4 8 -11 15 -18 15 -18 0 -92 91 -105 130 -9 27 -21 39 -54 53 -130 57 -264 140 -326 204 -14 15 -29 22 -39 18 -9 -3 -13 -3 -10 1 11 10 -11 44 -27 44 -8 0 -15 5 -15 10 0 11 -36 50 -46 50 -3 0 -23 18 -45 40 -22 22 -51 47 -64 56 -14 9 -25 23 -25 30 0 8 -3 13 -7 12 -15 -3 -43 14 -43 27 0 16 -28 28 -42 18 -6 -3 -8 -1 -5 4 6 10 -9 32 -71 101 -12 14 -32 41 -43 59 -13 20 -27 32 -35 29 -8 -3 -11 0 -7 10 3 8 -3 25 -14 37 -11 12 -23 29 -27 37 -3 8 -15 29 -26 45 -11 17 -24 40 -29 51 -5 12 -16 24 -23 27 -31 11 2 15 38 5 21 -6 43 -11 48 -9 5 1 16 -5 26 -14 9 -8 20 -12 23 -8 4 3 26 -3 49 -14 24 -12 66 -31 93 -44 28 -12 53 -27 56 -32 3 -5 9 -8 13 -8 3 1 23 -6 44 -15 20 -10 39 -18 42 -19 3 -1 27 -11 53 -23 27 -12 60 -25 73 -28 13 -3 24 -10 24 -14 0 -4 6 -7 13 -7 12 1 88 -18 117 -30 8 -3 23 -5 32 -4 10 1 26 -2 36 -8 14 -7 25 -6 42 6 13 9 20 12 17 6 -11 -18 33 -21 163 -13 l25 1 -24 10 c-14 5 -49 12 -79 14 -30 2 -74 7 -98 11 -30 4 -49 2 -59 -6 -13 -11 -14 -10 -10 2 5 11 -4 17 -32 21 -61 10 -214 70 -209 83 3 7 -5 9 -18 7 -13 -3 -30 2 -39 11 -8 9 -25 16 -36 16 -12 0 -21 5 -21 11 0 6 -9 9 -19 6 -14 -3 -18 -1 -14 9 3 8 -1 14 -8 14 -8 0 -58 23 -113 50 -54 28 -107 50 -117 50 -11 0 -19 5 -19 10 0 6 -9 10 -20 10 -11 0 -20 5 -20 10 0 6 -9 10 -20 10 -11 0 -20 4 -20 9 0 4 -20 14 -45 21 -25 7 -45 17 -45 21 0 5 -5 9 -11 9 -6 0 -26 7 -45 16 -19 9 -43 14 -54 11 -10 -3 -18 -1 -17 5 1 5 -16 17 -38 25 -22 9 -52 25 -67 35 -14 10 -31 18 -37 18 -6 0 -11 4 -11 9 0 5 -8 12 -17 15 -27 9 -92 72 -103 100 -8 21 -6 25 13 28 12 2 30 0 40 -4 9 -5 22 -6 27 -3z m2053 8 c-13 -2 -35 -2 -50 0 -16 2 -5 4 22 4 28 0 40 -2 28 -4z m245 0 c-10 -2 -26 -2 -35 0 -10 3 -2 5 17 5 19 0 27 -2 18 -5z m189 1 c-3 -3 -12 -4 -19 -1 -8 3 -5 6 6 6 11 1 17 -2 13 -5z m243 -4 c8 -5 11 -10 5 -10 -5 0 -17 5 -25 10 -8 5 -10 10 -5 10 6 0 17 -5 25 -10z m-2176 -12 c-14 -23 -97 -128 -102 -128 -7 0 26 49 65 98 33 40 52 56 37 30z m936 2 c-8 -5 -19 -10 -25 -10 -5 0 -3 5 5 10 8 5 20 10 25 10 6 0 3 -5 -5 -10z m477 4 c-3 -3 -12 -4 -19 -1 -8 3 -5 6 6 6 11 1 17 -2 13 -5z m396 -1 c-7 -2 -19 -2 -25 0 -7 3 -2 5 12 5 14 0 19 -2 13 -5z m182 -3 c13 -5 14 -9 5 -9 -8 0 -24 4 -35 9 -13 5 -14 9 -5 9 8 0 24 -4 35 -9z m105 0 c8 -5 11 -10 5 -10 -5 0 -17 5 -25 10 -8 5 -10 10 -5 10 6 0 17 -5 25 -10z m-1327 -28 c-41 -40 -111 -94 -126 -96 -22 -3 -88 -58 -102 -86 -18 -35 -135 -164 -152 -168 -21 -5 -15 10 20 53 62 77 83 98 187 185 102 84 176 138 193 139 5 1 -4 -11 -20 -27z m242 18 c-3 -5 -12 -10 -18 -10 -7 0 -6 4 3 10 19 12 23 12 15 0z m858 3 c-7 -2 -19 -2 -25 0 -7 3 -2 5 12 5 14 0 19 -2 13 -5z m390 -19 c62 -32 177 -104 177 -111 0 -3 -12 3 -27 13 -16 10 -71 42 -123 71 -100 56 -116 72 -27 27z m-2273 -49 c-41 -53 -73 -85 -55 -54 26 42 88 120 92 115 3 -3 -13 -30 -37 -61z m179 44 c48 -23 48 -27 -3 -39 -32 -7 -35 -6 -26 10 14 26 13 28 -15 22 -24 -4 -33 7 -18 21 10 10 15 9 62 -14z m1516 15 c-69 -8 -243 -8 -238 -1 2 4 64 6 136 5 73 0 119 -3 102 -4z m232 0 c-3 -3 -12 -4 -19 -1 -8 3 -5 6 6 6 11 1 17 -2 13 -5z m138 -4 c13 -6 15 -9 5 -9 -8 0 -22 4 -30 9 -18 12 -2 12 25 0z m100 -8 c-3 -3 -11 0 -18 7 -9 10 -8 11 6 5 10 -3 15 -9 12 -12z m-1495 4 c0 -2 -8 -10 -17 -17 -16 -13 -17 -12 -4 4 13 16 21 21 21 13z m1118 -3 c-10 -2 -26 -2 -35 0 -10 3 -2 5 17 5 19 0 27 -2 18 -5z m55 -10 c-7 -2 -19 -2 -25 0 -7 3 -2 5 12 5 14 0 19 -2 13 -5z m191 -9 c26 -9 45 -18 43 -20 -2 -2 -28 5 -58 15 -30 11 -49 20 -43 20 6 1 32 -6 58 -15z m226 -19 c39 -19 70 -38 70 -40 0 -5 -139 62 -149 71 -13 12 18 0 79 -31z m430 -165 c63 -63 130 -138 149 -165 44 -64 31 -52 -61 60 -75 91 -166 177 -270 254 -77 58 -74 63 5 9 34 -24 114 -95 177 -158z m-2643 158 c-31 -44 -66 -82 -71 -77 -3 2 14 28 36 57 39 50 68 67 35 20z m813 27 c0 -2 -10 -9 -22 -15 -22 -11 -22 -10 -4 4 21 17 26 19 26 11z m930 -21 c36 -7 47 -11 25 -9 -22 3 -107 8 -190 12 -110 6 -135 9 -95 13 74 7 181 1 260 -16z m145 11 c54 -17 33 -18 -30 -1 -27 8 -41 14 -30 14 11 0 38 -5 60 -13z m-1671 -1 c23 -9 1 -34 -30 -34 -26 0 -30 10 -12 28 14 14 20 15 42 6z m-206 -65 c-22 -27 -43 -47 -45 -45 -8 7 70 105 79 100 4 -3 -11 -28 -34 -55z m1345 54 c-7 -2 -19 -2 -25 0 -7 3 -2 5 12 5 14 0 19 -2 13 -5z m782 -3 c3 -6 -1 -7 -9 -4 -18 7 -21 14 -7 14 6 0 13 -4 16 -10z m-1375 -8 c0 -14 -62 -67 -130 -112 -73 -48 -120 -89 -120 -104 -1 -16 -100 -120 -107 -113 -11 11 30 61 127 155 92 88 206 182 223 182 4 0 7 -4 7 -8z m66 -17 c-16 -13 -38 -26 -49 -29 -22 -6 -19 -1 25 30 43 30 61 30 24 -1z m1735 -2 l24 -26 -27 19 c-15 10 -28 22 -28 27 0 12 5 8 31 -20z m-650 -7 c92 -30 153 -56 147 -62 -3 -2 -31 7 -64 21 -32 13 -88 33 -124 44 -36 10 -58 20 -49 20 9 1 50 -10 90 -23z m179 14 c8 -5 11 -10 5 -10 -5 0 -17 5 -25 10 -8 5 -10 10 -5 10 6 0 17 -5 25 -10z m85 0 c3 -6 -1 -7 -9 -4 -18 7 -21 14 -7 14 6 0 13 -4 16 -10z m-2085 -15 c0 -8 -9 -19 -20 -25 -11 -6 -20 -17 -20 -25 0 -8 -9 -19 -20 -25 -28 -15 -25 -1 11 48 32 43 49 53 49 27z m440 12 c0 -2 -10 -12 -22 -23 l-23 -19 19 23 c18 21 26 27 26 19z m346 -10 c-10 -7 -33 -21 -50 -32 -17 -12 -40 -24 -51 -29 -32 -12 -4 13 52 45 46 27 88 41 49 16z m324 3 c-8 -5 -22 -9 -30 -9 -10 0 -8 3 5 9 27 12 43 12 25 0z m457 -1 c312 -34 618 -194 793 -411 39 -49 37 -48 -21 13 -241 249 -491 365 -832 385 -59 4 -110 11 -113 16 -7 11 57 10 173 -3z m456 -40 c31 -16 57 -32 57 -34 0 -3 -26 7 -57 23 -32 15 -69 34 -83 40 l-25 12 25 -6 c14 -4 51 -20 83 -35z m102 31 c3 -6 -1 -7 -9 -4 -18 7 -21 14 -7 14 6 0 13 -4 16 -10z m-1317 -14 c-15 -8 -38 -22 -50 -30 -12 -9 -27 -16 -33 -16 -15 0 78 59 95 59 8 1 3 -6 -12 -13z m442 4 c-14 -4 -36 -8 -50 -8 l-25 0 25 8 c14 4 36 8 50 8 l25 0 -25 -8z m990 -16 c0 -2 -9 0 -20 6 -11 6 -20 13 -20 16 0 2 9 0 20 -6 11 -6 20 -13 20 -16z m-2180 11 c0 -3 -9 -15 -20 -27 -10 -13 -25 -31 -33 -42 -8 -10 -19 -17 -25 -15 -14 5 48 88 66 89 6 0 12 -2 12 -5z m796 -10 c-11 -8 -22 -12 -25 -9 -6 6 19 24 34 24 6 -1 1 -7 -9 -15z m1324 -11 c0 -2 -9 0 -20 6 -11 6 -20 13 -20 16 0 2 9 0 20 -6 11 -6 20 -13 20 -16z m446 -101 c-4 -4 -126 118 -126 126 0 3 29 -23 65 -59 35 -35 63 -65 61 -67z m-1716 108 c0 -9 -60 -34 -67 -27 -3 2 55 35 65 36 1 0 2 -4 2 -9z m-836 -48 c-21 -27 -39 -50 -41 -52 -2 -2 -6 -1 -9 2 -8 8 63 97 78 97 6 0 -7 -21 -28 -47z m2066 21 c0 -2 -9 0 -20 6 -11 6 -20 13 -20 16 0 2 9 0 20 -6 11 -6 20 -13 20 -16z m382 -152 c46 -48 105 -116 130 -152 48 -67 124 -200 115 -200 -3 0 -21 28 -40 63 -79 144 -205 292 -362 426 l-50 43 61 -46 c33 -26 99 -86 146 -134z m-2418 111 c-21 -26 -40 -50 -41 -52 -2 -2 -5 -2 -7 0 -3 2 13 28 36 57 22 30 42 51 45 48 3 -3 -12 -27 -33 -53z m856 45 c-116 -50 -161 -79 -369 -242 -12 -9 -13 -8 -5 5 11 18 85 85 134 121 68 50 215 128 240 127 l25 0 -25 -11z m686 -3 c116 -21 180 -40 284 -84 170 -73 342 -207 453 -353 53 -71 124 -188 114 -188 -3 0 -20 25 -37 55 -164 287 -457 491 -790 550 -14 2 -61 7 -105 11 -44 3 -87 10 -95 15 -25 14 80 10 176 -6z m654 -60 c30 -24 64 -53 75 -65 11 -13 -16 6 -60 41 -44 35 -91 72 -105 82 -25 18 -25 18 5 1 17 -9 55 -36 85 -59z m25 30 c23 -20 18 -19 -17 6 -27 18 -48 34 -48 36 0 7 35 -16 65 -42z m-2164 8 c-41 -57 -69 -88 -75 -82 -3 3 15 28 40 57 49 56 68 69 35 25z m173 -25 c-27 -29 -66 -73 -86 -98 -42 -51 -64 -48 -25 3 52 68 129 147 144 147 10 0 -2 -20 -33 -52z m276 33 c-5 -11 -41 -42 -79 -70 -38 -27 -83 -69 -99 -93 -34 -50 -70 -84 -78 -75 -12 11 238 257 262 257 3 0 0 -9 -6 -19z m454 10 c3 -5 -9 -14 -27 -21 -17 -7 -46 -19 -64 -26 -17 -8 -35 -14 -41 -14 -5 0 -15 -7 -22 -15 -7 -8 -23 -15 -35 -15 -13 0 -41 -15 -62 -33 -22 -18 -73 -57 -114 -87 -41 -30 -79 -62 -86 -70 -6 -8 -14 -12 -18 -9 -11 12 134 134 227 190 89 55 200 108 225 109 6 0 14 -4 17 -9z m279 2 c-7 -2 -19 -2 -25 0 -7 3 -2 5 12 5 14 0 19 -2 13 -5z m-1179 -67 c-46 -54 -63 -69 -48 -43 17 28 87 107 91 103 3 -3 -16 -30 -43 -60z m34 -9 c-57 -70 -88 -91 -43 -29 37 49 88 103 93 98 2 -3 -20 -34 -50 -69z m96 61 c-10 -18 -107 -132 -119 -140 -5 -4 -11 -5 -13 -3 -6 6 120 155 131 155 4 0 5 -6 1 -12z m981 2 c-11 -5 -31 -9 -45 -9 -23 0 -23 1 -5 9 11 5 31 9 45 9 23 0 23 -1 5 -9z m750 -10 c3 -5 -4 -6 -15 -3 -11 3 -22 9 -25 13 -3 5 4 6 15 3 11 -3 22 -9 25 -13z m279 -91 c95 -79 174 -169 249 -285 51 -79 90 -154 84 -160 -2 -2 -12 13 -23 33 -96 190 -217 333 -388 462 -85 64 -92 70 -47 45 18 -10 74 -53 125 -95z m-174 75 c0 -2 -9 0 -20 6 -11 6 -20 13 -20 16 0 2 9 0 20 -6 11 -6 20 -13 20 -16z m-1330 11 c0 -4 -177 -141 -225 -174 -11 -8 0 7 25 33 25 26 79 70 120 97 76 50 80 52 80 44z m-224 -59 c-68 -56 -116 -103 -153 -151 -17 -22 -35 -37 -39 -32 -4 4 45 59 110 123 64 64 120 113 124 109 4 -4 -15 -26 -42 -49z m1139 24 c192 -38 371 -132 522 -274 51 -49 92 -91 89 -94 -3 -2 -40 30 -83 72 -163 162 -383 269 -608 297 -49 6 -94 15 -100 20 -12 11 60 3 180 -21z m385 -6 c0 -2 -13 2 -30 11 -16 9 -30 18 -30 21 0 2 14 -2 30 -11 17 -9 30 -18 30 -21z m86 -5 c4 -8 1 -8 -14 0 -12 6 -24 16 -28 22 -4 8 -1 8 14 0 12 -6 24 -16 28 -22z m-1596 -39 c-56 -51 -89 -68 -54 -29 21 24 94 79 103 79 3 -1 -19 -23 -49 -50z m1881 -47 c53 -54 106 -114 118 -133 18 -27 14 -25 -15 10 -21 25 -77 84 -124 133 -47 48 -83 87 -80 87 3 0 49 -44 101 -97z m328 0 c12 -18 21 -33 18 -33 -5 0 -97 118 -97 125 0 8 51 -53 79 -92z m-2181 32 c-57 -50 -78 -63 -78 -50 0 7 124 105 133 105 5 0 -20 -25 -55 -55z m765 38 c-7 -2 -21 -2 -30 0 -10 3 -4 5 12 5 17 0 24 -2 18 -5z m362 -20 c171 -43 360 -149 475 -267 56 -58 46 -61 -12 -3 -116 115 -306 220 -463 257 -49 12 -103 25 -120 30 -49 15 49 1 120 -17z m546 -50 c8 -10 -10 2 -38 26 -29 23 -53 45 -53 48 0 7 75 -54 91 -74z m-91 21 c0 -9 -37 15 -51 33 -10 12 -5 11 19 -6 17 -12 32 -24 32 -27z m470 11 c13 -14 19 -25 14 -25 -8 1 -50 50 -41 50 2 0 14 -11 27 -25z m101 -68 c49 -72 30 -57 -27 23 -21 30 -33 51 -26 46 7 -4 31 -35 53 -69z m241 36 c35 -54 111 -193 105 -193 -3 0 -25 35 -48 78 -23 42 -53 91 -66 108 -21 29 -28 44 -19 44 2 0 14 -17 28 -37z m-61 10 c13 -16 12 -17 -3 -4 -10 7 -18 15 -18 17 0 8 8 3 21 -13z m-1528 0 c-7 -2 -19 -2 -25 0 -7 3 -2 5 12 5 14 0 19 -2 13 -5z m951 -147 c84 -96 176 -245 216 -352 20 -52 0 -19 -48 79 -28 57 -78 140 -111 185 -58 78 -196 222 -213 222 -4 0 -8 5 -8 11 0 16 101 -73 164 -145z m737 48 c21 -39 39 -75 39 -80 0 -8 -79 125 -101 171 l-10 20 16 -20 c9 -11 34 -52 56 -91z m-681 81 c7 -8 8 -15 2 -15 -5 0 -15 7 -22 15 -7 8 -8 15 -2 15 5 0 15 -7 22 -15z m680 -5 c6 -11 8 -20 6 -20 -3 0 -10 9 -16 20 -6 11 -8 20 -6 20 3 0 10 -9 16 -20z m-359 -62 c19 -34 2 -17 -30 30 -25 35 -26 40 -6 17 14 -16 30 -38 36 -47z m409 52 c6 -11 8 -20 6 -20 -3 0 -10 9 -16 20 -6 11 -8 20 -6 20 3 0 10 -9 16 -20z m-1825 -8 c-16 -1 -58 -10 -93 -19 -34 -9 -65 -14 -68 -11 -3 3 26 13 63 21 95 23 107 24 118 18 6 -3 -3 -7 -20 -9z m208 11 c-7 -2 -19 -2 -25 0 -7 3 -2 5 12 5 14 0 19 -2 13 -5z m818 -39 c20 -22 26 -32 14 -26 -25 13 -72 62 -59 62 6 0 26 -16 45 -36z m857 11 c-3 -3 -9 2 -12 12 -6 14 -5 15 5 6 7 -7 10 -15 7 -18z m-684 -85 c44 -57 67 -93 49 -75 -29 28 -142 176 -118 155 15 -14 46 -50 69 -80z m328 36 c7 -13 7 -16 -1 -12 -6 4 -18 22 -27 39 -14 30 -14 31 1 12 9 -11 21 -28 27 -39z m-2409 10 c-37 -45 -52 -46 -17 -1 14 19 31 35 36 35 6 0 -3 -15 -19 -34z m2691 18 c3 -8 2 -12 -4 -9 -6 3 -10 10 -10 16 0 14 7 11 14 -7z m44 -9 c-3 -3 -9 2 -12 12 -6 14 -5 15 5 6 7 -7 10 -15 7 -18z m121 -60 c0 -5 -8 6 -19 25 -11 19 -19 40 -19 45 0 6 8 -6 19 -25 11 -19 19 -39 19 -45z m-1632 59 c-3 -3 -12 -4 -19 -1 -8 3 -5 6 6 6 11 1 17 -2 13 -5z m-1199 -26 c-8 -12 -21 -24 -29 -26 -8 -3 -3 7 10 22 30 32 39 34 19 4z m46 10 c-13 -24 -37 -48 -47 -48 -6 0 2 14 18 30 31 32 41 38 29 18z m1211 2 c13 -5 14 -9 5 -9 -8 0 -24 4 -35 9 -13 5 -14 9 -5 9 8 0 24 -4 35 -9z m1434 -30 c11 -24 11 -24 -3 -6 -9 11 -16 24 -16 30 0 12 5 7 19 -24z m39 5 c-3 -3 -9 2 -12 12 -6 14 -5 15 5 6 7 -7 10 -15 7 -18z m-1318 0 c14 -8 21 -14 15 -14 -5 0 -21 6 -35 14 -14 8 -20 14 -15 14 6 0 21 -6 35 -14z m530 -10 c13 -14 21 -25 18 -25 -2 0 -15 11 -28 25 -13 14 -21 25 -18 25 2 0 15 -11 28 -25z m370 -6 c15 -28 5 -23 -15 7 -9 15 -12 23 -6 20 6 -4 16 -16 21 -27z m85 -72 c26 -48 46 -90 44 -92 -2 -2 -28 43 -58 98 -29 56 -49 98 -43 92 5 -5 31 -50 57 -98z m95 2 c41 -81 113 -276 107 -293 -2 -5 -16 30 -31 79 -16 50 -51 137 -79 195 -76 154 -73 167 3 19z m-185 -80 c30 -59 55 -110 55 -115 0 -5 -27 41 -58 102 -32 61 -69 126 -81 145 l-23 34 26 -30 c14 -16 50 -77 81 -136z m8 71 c16 -27 26 -50 24 -50 -3 0 -18 21 -33 48 -15 26 -34 58 -42 72 l-14 25 18 -22 c11 -13 32 -45 47 -73z m122 20 c48 -95 44 -103 -5 -10 -42 79 -43 80 -35 80 3 0 21 -31 40 -70z m-772 -8 c21 -18 34 -32 29 -32 -4 0 -31 21 -58 48 -51 48 -39 41 29 -16z m-363 42 l25 -15 -25 7 c-14 3 -32 10 -40 15 -13 7 -13 8 0 8 8 0 26 -6 40 -15z m1560 -48 c0 -18 -17 8 -24 34 l-7 25 15 -25 c9 -14 15 -29 16 -34z m-1435 26 c-3 -3 -11 0 -18 7 -9 10 -8 11 6 5 10 -3 15 -9 12 -12z m596 -54 c42 -62 132 -243 143 -288 7 -29 2 -19 -64 124 -22 49 -63 122 -90 163 -27 40 -45 71 -40 68 6 -4 29 -34 51 -67z m319 52 c6 -11 8 -20 6 -20 -3 0 -10 9 -16 20 -6 11 -8 20 -6 20 3 0 10 -9 16 -20z m378 -5 c-3 -3 -9 2 -12 12 -6 14 -5 15 5 6 7 -7 10 -15 7 -18z m-545 -34 c27 -46 14 -38 -18 12 -16 23 -22 37 -14 30 8 -6 22 -25 32 -42z m606 -6 c0 -5 -6 1 -14 15 -8 14 -14 30 -14 35 0 6 6 -1 14 -15 8 -14 14 -29 14 -35z m-91 20 c-3 -3 -9 2 -12 12 -6 14 -5 15 5 6 7 -7 10 -15 7 -18z m126 -1 c3 -8 2 -12 -4 -9 -6 3 -10 10 -10 16 0 14 7 11 14 -7z m-445 -34 c11 -24 11 -24 -3 -6 -9 11 -16 24 -16 30 0 12 5 7 19 -24z m-923 4 c18 -14 18 -14 -6 -3 -31 14 -36 19 -24 19 6 0 19 -7 30 -16z m733 -92 c53 -107 105 -252 115 -322 9 -60 -7 -33 -24 40 -23 103 -61 205 -111 298 -27 52 -45 91 -39 87 6 -4 32 -50 59 -103z m571 73 c0 -5 -5 -3 -10 5 -5 8 -10 20 -10 25 0 6 5 3 10 -5 5 -8 10 -19 10 -25z m140 -44 c-1 -9 -7 2 -15 24 -19 52 -18 70 0 26 8 -18 15 -41 15 -50z m-1359 52 c13 -16 12 -17 -3 -4 -17 13 -22 21 -14 21 2 0 10 -8 17 -17z m420 -25 c17 -24 18 -29 6 -19 -18 14 -42 51 -33 51 3 0 15 -15 27 -32z m288 -65 c50 -101 88 -207 112 -313 21 -96 23 -114 10 -106 -5 3 -14 36 -21 73 -22 130 -60 244 -120 363 -17 33 -28 60 -25 60 3 0 22 -35 44 -77z m115 51 c3 -8 2 -12 -4 -9 -6 3 -10 10 -10 16 0 14 7 11 14 -7z m75 -79 c0 -5 -11 10 -24 35 -13 25 -24 50 -24 55 0 6 11 -10 24 -35 13 -25 24 -49 24 -55z m197 -40 c19 -58 33 -112 31 -118 -3 -7 -8 2 -12 18 -4 17 -20 68 -36 115 -17 47 -32 94 -35 105 -15 56 19 -23 52 -120z m-83 -55 c14 -47 27 -101 30 -120 4 -22 1 -16 -9 15 -13 44 -68 214 -87 270 -4 11 4 -2 17 -30 14 -27 36 -88 49 -135z m316 125 c0 -5 -4 -3 -9 5 -5 8 -9 22 -9 30 0 16 17 -16 18 -35z m-1254 25 c3 -6 -1 -7 -9 -4 -18 7 -21 14 -7 14 6 0 13 -4 16 -10z m66 -17 c13 -16 12 -17 -3 -4 -17 13 -22 21 -14 21 2 0 10 -8 17 -17z m365 -87 c20 -37 34 -70 32 -72 -3 -2 -25 38 -51 89 -25 50 -39 83 -31 72 9 -11 31 -51 50 -89z m344 69 c0 -5 -5 -3 -10 5 -5 8 -10 20 -10 25 0 6 5 3 10 -5 5 -8 10 -19 10 -25z m80 0 c0 -5 -5 -3 -10 5 -5 8 -10 20 -10 25 0 6 5 3 10 -5 5 -8 10 -19 10 -25z m-725 15 c3 -5 1 -10 -4 -10 -6 0 -11 5 -11 10 0 6 2 10 4 10 3 0 8 -4 11 -10z m1094 -35 c0 -5 -4 -3 -9 5 -5 8 -9 22 -9 30 0 16 17 -16 18 -35z m-1028 18 c13 -16 12 -17 -3 -4 -10 7 -18 15 -18 17 0 8 8 3 21 -13z m60 -10 c13 -16 12 -17 -3 -4 -17 13 -22 21 -14 21 2 0 10 -8 17 -17z m465 -70 c-5 -5 -36 62 -36 76 1 3 10 -11 21 -32 11 -22 18 -41 15 -44z m88 -3 c3 -14 -3 -7 -13 15 -11 22 -20 45 -20 50 0 15 26 -37 33 -65z m66 35 c0 -5 -5 -3 -10 5 -5 8 -10 20 -10 25 0 6 5 3 10 -5 5 -8 10 -19 10 -25z m-699 -2 c13 -16 12 -17 -3 -4 -17 13 -22 21 -14 21 2 0 10 -8 17 -17z m683 -63 c5 -20 3 -19 -8 5 -7 17 -16 41 -20 55 -5 20 -3 19 8 -5 7 -16 16 -41 20 -55z m230 0 c4 -24 3 -28 -2 -15 -14 31 -24 83 -13 65 5 -8 11 -31 15 -50z m-488 -53 c14 -43 24 -80 21 -83 -4 -4 -49 117 -63 171 -14 50 17 -15 42 -88z m174 68 c0 -5 -5 -3 -10 5 -5 8 -10 20 -10 25 0 6 5 3 10 -5 5 -8 10 -19 10 -25z m5 -148 c13 -49 27 -117 30 -151 4 -46 -2 -29 -24 69 -15 72 -35 150 -44 175 -9 25 -16 50 -16 55 1 20 31 -60 54 -148z m-505 122 c0 -6 -4 -7 -10 -4 -5 3 -10 11 -10 16 0 6 5 7 10 4 6 -3 10 -11 10 -16z m60 -10 c0 -6 -4 -7 -10 -4 -5 3 -10 11 -10 16 0 6 5 7 10 4 6 -3 10 -11 10 -16z m460 -14 c0 -5 -5 -3 -10 5 -5 8 -10 20 -10 25 0 6 5 3 10 -5 5 -8 10 -19 10 -25z m107 3 c-3 -8 -6 -5 -6 6 -1 11 2 17 5 13 3 -3 4 -12 1 -19z m267 -102 c9 -41 16 -83 15 -93 -1 -16 -9 18 -43 182 -5 25 -5 26 3 8 6 -12 17 -56 25 -97z m-45 -1 l0 -20 -8 20 c-5 11 -11 38 -14 60 l-6 40 14 -40 c7 -22 14 -49 14 -60z m-111 20 l1 -20 -9 20 c-5 11 -8 31 -8 45 l0 25 8 -25 c4 -14 8 -34 8 -45z m-654 39 c3 -8 2 -12 -4 -9 -6 3 -10 10 -10 16 0 14 7 11 14 -7z m455 -34 c0 -9 -4 -8 -9 5 -5 11 -9 27 -9 35 0 9 4 8 9 -5 5 -11 9 -27 9 -35z m-401 15 c-3 -3 -9 2 -12 12 -6 14 -5 15 5 6 7 -7 10 -15 7 -18z m469 3 c-3 -8 -6 -5 -6 6 -1 11 2 17 5 13 3 -3 4 -12 1 -19z m40 -10 c-3 -8 -6 -5 -6 6 -1 11 2 17 5 13 3 -3 4 -12 1 -19z m168 -134 c16 -111 20 -350 6 -373 -6 -9 -10 53 -10 165 0 120 -5 207 -15 264 -9 47 -16 90 -15 95 2 23 20 -57 34 -151z m-227 86 c0 -9 -3 -7 -8 5 -5 11 -8 29 -8 40 0 16 2 15 8 -5 4 -14 8 -32 8 -40z m29 18 c-3 -8 -6 -5 -6 6 -1 11 2 17 5 13 3 -3 4 -12 1 -19z m-53 -84 c5 -48 5 -47 -9 11 -16 67 -18 91 -5 59 5 -12 11 -43 14 -70z m93 64 c-3 -8 -6 -5 -6 6 -1 11 2 17 5 13 3 -3 4 -12 1 -19z m101 -70 c17 -129 21 -199 13 -193 -5 2 -11 46 -14 97 -4 51 -10 112 -13 136 -4 23 -4 42 -1 42 3 0 10 -37 15 -82z m179 50 c-3 -7 -5 -2 -5 12 0 14 2 19 5 13 2 -7 2 -19 0 -25z m-310 -10 c-3 -7 -5 -2 -5 12 0 14 2 19 5 13 2 -7 2 -19 0 -25z m230 -15 c-3 -10 -5 -4 -5 12 0 17 2 24 5 18 2 -7 2 -21 0 -30z m-190 -10 c-3 -10 -5 -4 -5 12 0 17 2 24 5 18 2 -7 2 -21 0 -30z m51 -68 c0 -22 -3 -19 -9 15 -10 60 -9 108 2 55 4 -22 8 -53 7 -70z m-121 63 c-3 -7 -5 -2 -5 12 0 14 2 19 5 13 2 -7 2 -19 0 -25z m380 10 c-3 -8 -6 -5 -6 6 -1 11 2 17 5 13 3 -3 4 -12 1 -19z m-782 -84 c17 -86 22 -291 8 -305 -5 -5 -7 30 -5 84 3 82 -12 217 -34 297 -5 19 -4 22 5 14 6 -5 18 -46 26 -90z m752 49 c-3 -10 -5 -2 -5 17 0 19 2 27 5 18 2 -10 2 -26 0 -35z m-310 0 c-3 -10 -5 -4 -5 12 0 17 2 24 5 18 2 -7 2 -21 0 -30z m-398 -80 c13 -82 15 -243 3 -243 -4 0 -6 20 -4 43 4 41 -11 204 -24 272 -4 21 -2 26 4 15 6 -8 15 -47 21 -87z m642 -54 c7 -92 7 -157 1 -179 -7 -28 -9 -11 -10 80 -1 63 -5 147 -8 185 -4 39 -4 67 -1 64 4 -3 12 -70 18 -150z m-262 27 c1 -63 -6 -37 -12 44 -4 56 -3 65 3 35 5 -22 9 -58 9 -79z m70 -10 c2 -66 -6 -35 -12 49 -4 60 -3 69 3 35 5 -25 9 -63 9 -84z m298 77 c-3 -10 -5 -4 -5 12 0 17 2 24 5 18 2 -7 2 -21 0 -30z m-712 -130 l3 -138 -7 120 c-5 66 -12 134 -16 150 -6 24 -5 28 5 18 9 -8 13 -55 15 -150z m642 90 c-2 -16 -4 -5 -4 22 0 28 2 40 4 28 2 -13 2 -35 0 -50z m110 0 c-2 -16 -4 -5 -4 22 0 28 2 40 4 28 2 -13 2 -35 0 -50z m-2107 53 c0 -2 -8 -10 -17 -17 -16 -13 -17 -12 -4 4 13 16 21 21 21 13z m1727 -58 c-2 -13 -4 -3 -4 22 0 25 2 35 4 23 2 -13 2 -33 0 -45z m-1732 6 c-19 -25 -35 -50 -35 -56 0 -6 -3 -8 -6 -5 -7 7 18 50 49 85 33 36 29 25 -8 -24z m1668 -7 c4 -31 3 -46 -3 -42 -6 3 -10 27 -10 52 0 57 5 53 13 -10z m374 -9 c-2 -13 -4 -3 -4 22 0 25 2 35 4 23 2 -13 2 -33 0 -45z m-642 -70 c5 -64 4 -98 -3 -98 -6 0 -10 33 -11 78 -1 42 -4 93 -7 112 -3 24 -2 30 4 20 6 -8 13 -59 17 -112z m-1484 60 c-36 -74 -37 -190 -2 -262 54 -110 142 -167 266 -174 94 -5 167 18 231 71 76 63 81 66 55 29 -46 -66 -144 -120 -236 -129 -39 -4 -73 0 -126 17 -63 19 -81 30 -134 83 -72 73 -95 128 -95 226 1 68 15 122 44 166 26 40 25 29 -3 -27z m139 49 c0 -2 -12 -14 -27 -28 l-28 -24 24 28 c23 25 31 32 31 24z m-106 -50 c-66 -119 -25 -274 90 -342 101 -59 220 -37 327 61 33 30 61 54 63 54 2 0 2 -9 -1 -20 -9 -35 -109 -117 -171 -140 -230 -87 -443 184 -312 398 29 47 33 39 4 -11z m1485 -76 c1 -102 -5 -86 -12 29 -4 57 -3 85 3 70 4 -14 8 -58 9 -99z m-1376 87 c-48 -53 -58 -130 -23 -182 65 -100 233 -101 275 -3 8 17 14 24 15 15 0 -23 -48 -78 -79 -90 -43 -16 -116 -11 -160 12 -94 47 -114 157 -45 240 14 16 28 30 32 30 3 0 -4 -10 -15 -22z m-1266 -10 c-3 -8 -6 -5 -6 6 -1 11 2 17 5 13 3 -3 4 -12 1 -19z m100 -45 c-2 -16 -4 -5 -4 22 0 28 2 40 4 28 2 -13 2 -35 0 -50z m1243 57 c-107 -25 -106 -171 3 -220 26 -12 34 -20 22 -20 -51 0 -125 76 -125 128 0 60 57 122 110 121 20 -1 18 -3 -10 -9z m1677 -52 c-2 -13 -4 -3 -4 22 0 25 2 35 4 23 2 -13 2 -33 0 -45z m270 -30 c-2 -18 -4 -4 -4 32 0 36 2 50 4 33 2 -18 2 -48 0 -65z m-607 -36 c0 -263 -83 -520 -235 -731 -51 -71 -185 -214 -185 -198 0 4 29 38 64 76 78 86 144 178 196 273 90 168 156 448 144 613 -5 63 -3 86 5 81 7 -5 11 -46 11 -114z m-2463 86 c-3 -8 -6 -5 -6 6 -1 11 2 17 5 13 3 -3 4 -12 1 -19z m986 -3 c-3 -9 -8 -14 -10 -11 -3 3 -2 9 2 15 9 16 15 13 8 -4z m-1076 -147 c-2 -29 -3 -6 -3 52 0 58 1 81 3 53 2 -29 2 -77 0 -105z m44 50 c1 -53 8 -129 15 -169 17 -96 16 -119 -3 -49 -14 54 -31 330 -20 320 3 -3 7 -49 8 -102z m1260 72 c22 -12 49 -61 48 -87 0 -10 -5 -2 -12 17 -13 36 -66 80 -98 80 -32 0 -62 -38 -54 -68 9 -40 37 -74 69 -85 22 -7 34 -5 57 12 18 14 26 16 23 7 -3 -8 -19 -20 -35 -27 -40 -16 -91 7 -119 53 -24 39 -25 66 -5 95 24 34 66 35 126 3z m1359 20 c0 -5 -2 -10 -4 -10 -3 0 -8 5 -11 10 -3 6 -1 10 4 10 6 0 11 -4 11 -10z m157 -12 c-3 -8 -6 -5 -6 6 -1 11 2 17 5 13 3 -3 4 -12 1 -19z m270 -120 c-2 -29 -3 -8 -3 47 0 55 1 79 3 53 2 -26 2 -71 0 -100z m-2940 70 c-2 -13 -4 -3 -4 22 0 25 2 35 4 23 2 -13 2 -33 0 -45z m2453 27 c0 -19 -4 -35 -10 -35 -5 0 -10 16 -10 35 0 19 5 35 10 35 6 0 10 -16 10 -35z m107 -2 c-3 -10 -5 -4 -5 12 0 17 2 24 5 18 2 -7 2 -21 0 -30z m-1680 -5 c-3 -8 -6 -5 -6 6 -1 11 2 17 5 13 3 -3 4 -12 1 -19z m27 -17 c-19 -121 111 -223 243 -189 31 7 59 24 85 50 22 22 35 31 29 20 -31 -57 -115 -97 -190 -90 -120 12 -197 104 -177 213 9 48 18 45 10 -4z m2073 -58 c-2 -21 -4 -6 -4 32 0 39 2 55 4 38 2 -18 2 -50 0 -70z m-3230 55 c-3 -7 -5 -2 -5 12 0 14 2 19 5 13 2 -7 2 -19 0 -25z m3300 -5 c-3 -10 -5 -4 -5 12 0 17 2 24 5 18 2 -7 2 -21 0 -30z m-3000 -35 c-2 -13 -4 -3 -4 22 0 25 2 35 4 23 2 -13 2 -33 0 -45z m2448 -212 c-29 -184 -102 -368 -213 -535 -52 -79 -244 -291 -263 -291 -23 0 -2 32 72 109 191 199 292 376 353 617 14 54 30 135 35 179 6 44 14 107 18 140 l8 60 3 -90 c2 -49 -4 -135 -13 -189z m-2551 169 c8 -110 27 -206 61 -304 14 -41 23 -76 21 -78 -6 -7 -45 103 -67 187 -18 68 -39 302 -26 290 2 -3 8 -45 11 -95z m2653 -37 c-4 -73 -13 -158 -22 -188 l-15 -55 5 50 c3 28 10 86 15 130 6 44 10 106 10 138 0 31 3 57 6 57 4 0 4 -60 1 -132z m38 20 c-4 -62 -11 -131 -16 -153 -6 -31 -7 -22 -3 35 2 41 5 107 5 145 1 39 4 73 6 78 13 22 15 -4 8 -105z m30 -55 c-4 -46 -10 -83 -14 -83 -4 0 -4 26 0 58 4 31 8 89 10 127 2 57 3 61 7 25 2 -25 1 -82 -3 -127z m-2848 135 c-3 -8 -6 -5 -6 6 -1 11 2 17 5 13 3 -3 4 -12 1 -19z m1064 -70 c32 -122 188 -177 318 -112 33 17 62 41 78 65 27 41 33 46 33 29 0 -21 -83 -100 -126 -121 -63 -30 -150 -29 -212 3 -64 33 -105 99 -108 176 -1 31 0 44 2 27 3 -16 10 -47 15 -67z m1664 -173 c-30 -189 -112 -398 -222 -562 -80 -119 -271 -318 -289 -301 -2 3 44 54 104 114 252 255 384 554 406 924 3 47 6 87 8 90 11 22 6 -186 -7 -265z m146 48 c-10 -46 -10 -45 -6 22 3 39 6 99 7 135 2 57 3 55 5 -22 2 -47 -1 -108 -6 -135z m44 49 c-11 -119 -18 -74 -9 55 6 80 10 102 12 68 2 -27 1 -83 -3 -123z m-1575 139 c13 -25 13 -27 -6 -45 -20 -21 -30 -20 -53 3 -28 28 -17 61 20 61 18 0 32 -7 39 -19z m1625 -85 c-4 -50 -12 -100 -17 -111 -6 -15 -7 -11 -3 14 3 18 5 71 5 118 0 58 3 82 11 77 8 -4 9 -35 4 -98z m-1558 62 c-3 -7 -5 -2 -5 12 0 14 2 19 5 13 2 -7 2 -19 0 -25z m2044 -157 c-14 -168 -50 -347 -97 -488 -43 -128 -89 -233 -102 -233 -6 0 1 23 15 52 95 197 160 466 179 743 5 61 10 99 12 86 2 -13 -1 -85 -7 -160z m46 72 c-2 -21 -4 -4 -4 37 0 41 2 58 4 38 2 -21 2 -55 0 -75z m-3295 -108 c6 -38 20 -92 30 -118 20 -54 23 -76 8 -61 -19 19 -61 209 -65 299 l-4 90 9 -70 c6 -38 15 -101 22 -140z m3204 95 c-14 -223 -60 -439 -133 -624 -56 -143 -121 -264 -135 -251 -2 2 22 57 54 122 70 143 140 350 167 496 18 91 41 288 41 350 0 9 3 17 6 17 4 0 4 -50 0 -110z m161 3 c-2 -21 -4 -4 -4 37 0 41 2 58 4 38 2 -21 2 -55 0 -75z m-3640 65 c-3 -7 -5 -2 -5 12 0 14 2 19 5 13 2 -7 2 -19 0 -25z m2699 -56 c-23 -309 -171 -605 -420 -841 -67 -64 -37 -12 45 76 204 221 316 466 354 768 14 117 30 115 21 -3z m981 51 c-3 -10 -5 -4 -5 12 0 17 2 24 5 18 2 -7 2 -21 0 -30z m-267 -183 c-26 -214 -93 -439 -190 -635 -59 -121 -117 -212 -127 -201 -3 3 15 40 40 83 152 259 253 579 274 863 7 91 8 97 11 45 2 -33 -2 -103 -8 -155z m-3106 135 c15 -141 47 -256 103 -369 18 -38 31 -71 29 -73 -3 -3 -23 33 -46 80 -47 98 -86 242 -96 354 -8 90 1 97 10 8z m1141 27 l-28 -27 24 31 c13 17 26 30 28 27 3 -2 -8 -16 -24 -31z m1922 -76 c-14 -224 -89 -493 -198 -709 -65 -130 -146 -258 -167 -265 -7 -2 15 38 49 90 110 168 202 380 254 588 28 109 55 286 55 354 0 25 3 46 7 46 3 0 3 -47 0 -104z m-3300 32 c-2 -13 -4 -3 -4 22 0 25 2 35 4 23 2 -13 2 -33 0 -45z m299 -112 c8 -38 12 -71 10 -73 -6 -7 -34 126 -39 192 l-5 60 9 -55 c6 -30 17 -86 25 -124z m3385 27 c-12 -119 -31 -236 -37 -230 -3 2 2 49 10 103 8 54 18 140 22 189 5 50 10 80 12 67 2 -12 -1 -70 -7 -129z m-3754 90 c-3 -10 -5 -2 -5 17 0 19 2 27 5 18 2 -10 2 -26 0 -35z m3329 -45 c-16 -216 -85 -466 -186 -673 -57 -115 -149 -265 -193 -312 -40 -44 -27 -14 27 62 185 257 304 573 338 897 7 65 14 118 17 118 2 0 1 -42 -3 -92z m381 -15 c-2 -21 -4 -4 -4 37 0 41 2 58 4 38 2 -21 2 -55 0 -75z m-3738 29 c-1 -66 -6 -60 -12 15 -2 29 0 50 5 47 4 -3 8 -31 7 -62z m408 16 c-2 -13 -4 -5 -4 17 -1 22 1 32 4 23 2 -10 2 -28 0 -40z m-449 -36 c5 -34 5 -59 1 -55 -4 4 -10 37 -13 73 -7 80 1 68 12 -18z m479 46 c-3 -7 -5 -2 -5 12 0 14 2 19 5 13 2 -7 2 -19 0 -25z m2187 -66 c-34 -229 -171 -504 -324 -647 -29 -27 -13 -3 46 71 141 176 232 376 264 574 12 81 18 105 24 99 2 -2 -2 -46 -10 -97z m694 13 c-24 -277 -125 -583 -265 -805 -59 -93 -146 -210 -155 -210 -6 0 5 19 22 43 220 291 363 646 386 955 3 42 7 83 10 90 9 29 9 7 2 -73z m-1893 65 c-27 -12 -43 -12 -25 0 8 5 22 9 30 9 10 0 8 -3 -5 -9z m1792 -12 c-3 -8 -6 -5 -6 6 -1 11 2 17 5 13 3 -3 4 -12 1 -19z m410 -70 c-2 -18 -4 -4 -4 32 0 36 2 50 4 33 2 -18 2 -48 0 -65z m203 -52 c-24 -231 -101 -526 -180 -691 -41 -85 -50 -79 -11 7 74 162 150 440 170 623 6 50 14 117 17 150 4 33 9 51 12 41 2 -11 -1 -70 -8 -130z m-3353 97 c-3 -10 -5 -4 -5 12 0 17 2 24 5 18 2 -7 2 -21 0 -30z m42 4 c0 -21 -1 -21 -9 -2 -12 28 -12 37 0 30 6 -3 10 -16 9 -28z m2767 -34 c-31 -302 -126 -580 -283 -823 -62 -96 -162 -224 -170 -217 -2 3 22 39 55 81 203 255 334 564 379 897 18 137 30 175 19 62z m411 -15 c-2 -18 -4 -6 -4 27 0 33 2 48 4 33 2 -15 2 -42 0 -60z m-3800 35 c-3 -10 -5 -4 -5 12 0 17 2 24 5 18 2 -7 2 -21 0 -30z m170 0 c-3 -10 -5 -4 -5 12 0 17 2 24 5 18 2 -7 2 -21 0 -30z m2518 -66 c-35 -174 -113 -350 -218 -489 -59 -77 -107 -128 -107 -111 0 5 12 20 26 34 33 31 114 140 151 204 69 120 143 336 143 421 0 31 12 54 18 34 2 -5 -4 -47 -13 -93z m662 13 c-8 -99 -49 -286 -89 -399 -40 -117 -126 -289 -194 -391 -67 -100 -171 -230 -185 -230 -5 0 21 37 57 82 217 267 358 590 396 912 7 58 14 106 17 106 2 0 1 -36 -2 -80z m-3094 -25 c4 -31 3 -41 -2 -25 -4 14 -11 48 -14 75 -4 31 -3 41 2 25 4 -14 11 -48 14 -75z m294 63 c-3 -7 -5 -2 -5 12 0 14 2 19 5 13 2 -7 2 -19 0 -25z m-410 -25 c-3 -10 -5 -2 -5 17 0 19 2 27 5 18 2 -10 2 -26 0 -35z m2517 -25 c-34 -180 -115 -354 -235 -505 -28 -35 -54 -62 -56 -59 -3 3 17 32 44 65 113 140 195 312 230 484 9 48 20 87 24 87 4 0 0 -32 -7 -72z m650 -36 c-30 -231 -110 -460 -232 -662 -85 -140 -243 -337 -262 -325 -4 3 6 20 22 37 116 124 207 256 287 417 90 179 145 351 171 536 13 85 18 110 24 104 2 -2 -2 -50 -10 -107z m-3076 -42 c-1 -27 -26 84 -26 115 0 17 6 1 13 -35 8 -36 14 -72 13 -80z m289 103 c-3 -10 -5 -4 -5 12 0 17 2 24 5 18 2 -7 2 -21 0 -30z m3168 -60 c-4 -41 -9 -72 -11 -70 -3 2 -2 42 2 88 4 46 9 78 12 71 2 -8 1 -47 -3 -89z m-3087 22 c0 -16 -2 -15 -8 5 -11 34 -11 60 0 35 5 -11 8 -29 8 -40z m2012 -42 c-12 -48 -39 -127 -60 -175 -39 -90 -132 -239 -171 -273 -27 -24 -19 -8 32 60 86 116 155 262 184 391 19 85 24 98 31 91 3 -3 -4 -45 -16 -94z m641 -34 c-52 -305 -195 -601 -409 -845 -74 -84 -107 -112 -120 -100 -3 3 31 43 74 89 217 229 374 540 435 859 12 62 23 117 26 121 14 24 12 -14 -6 -124z m506 69 c-2 -13 -4 -3 -4 22 0 25 2 35 4 23 2 -13 2 -33 0 -45z m-3574 -3 c4 -34 3 -42 -3 -25 -8 25 -13 87 -6 79 2 -2 6 -26 9 -54z m374 23 c-3 -7 -5 -2 -5 12 0 14 2 19 5 13 2 -7 2 -19 0 -25z m3416 -90 c-14 -116 -50 -287 -62 -301 -4 -4 3 39 16 95 12 57 28 153 35 215 7 61 15 110 18 108 4 -2 1 -55 -7 -117z m-2738 -2 c22 -21 31 -34 19 -28 -25 13 -98 91 -114 123 -7 13 3 6 21 -16 18 -22 51 -57 74 -79z m2792 82 c-3 -7 -5 -2 -5 12 0 14 2 19 5 13 2 -7 2 -19 0 -25z m-3915 -7 c2 -17 1 -28 -4 -25 -8 5 -12 54 -4 54 2 0 6 -13 8 -29z m3078 -89 c-45 -222 -148 -459 -278 -641 -86 -120 -247 -291 -275 -291 -15 0 3 23 75 98 237 244 397 544 458 857 13 64 31 107 37 89 2 -7 -5 -57 -17 -112z m-3164 -172 c4 -26 -33 70 -41 105 -3 11 -11 47 -20 80 -8 33 -15 69 -14 80 0 19 66 -213 75 -265z m-6 247 c0 -12 12 -66 25 -121 27 -105 28 -145 1 -54 -14 48 -46 191 -46 204 0 3 5 2 10 -1 6 -3 10 -16 10 -28z m507 11 c-3 -8 -6 -5 -6 6 -1 11 2 17 5 13 3 -3 4 -12 1 -19z m2042 -50 c-38 -136 -112 -287 -180 -368 -40 -47 -26 -11 24 64 52 77 111 205 133 286 15 57 30 90 40 90 1 0 -6 -33 -17 -72z m1258 10 c-2 -13 -4 -3 -4 22 0 25 2 35 4 23 2 -13 2 -33 0 -45z m-3909 11 c-3 -20 -5 -19 -9 9 -3 20 -2 29 4 23 5 -5 7 -19 5 -32z m229 9 c-3 -7 -5 -2 -5 12 0 14 2 19 5 13 2 -7 2 -19 0 -25z m2880 0 c-3 -7 -5 -2 -5 12 0 14 2 19 5 13 2 -7 2 -19 0 -25z m-2460 0 c-3 -8 -6 -5 -6 6 -1 11 2 17 5 13 3 -3 4 -12 1 -19z m3150 -25 c-3 -10 -5 -2 -5 17 0 19 2 27 5 18 2 -10 2 -26 0 -35z m70 -5 c-2 -13 -4 -5 -4 17 -1 22 1 32 4 23 2 -10 2 -28 0 -40z m-3905 17 c3 -13 1 -22 -3 -19 -9 5 -13 44 -5 44 2 0 6 -11 8 -25z m1368 0 c13 -14 21 -25 18 -25 -2 0 -15 11 -28 25 -13 14 -21 25 -18 25 2 0 15 -11 28 -25z m543 11 c-33 -57 -159 -117 -258 -124 -80 -5 -173 16 -196 45 -13 15 -12 16 6 9 83 -33 111 -38 188 -34 92 5 166 33 227 86 40 35 44 38 33 18z m1264 -8 c-3 -8 -6 -5 -6 6 -1 11 2 17 5 13 3 -3 4 -12 1 -19z m-2520 -10 c-3 -8 -6 -5 -6 6 -1 11 2 17 5 13 3 -3 4 -12 1 -19z m2593 -57 c-64 -291 -216 -572 -428 -788 -91 -93 -175 -163 -149 -123 9 14 43 49 77 78 121 107 263 298 347 467 58 116 98 228 144 405 16 63 24 30 9 -39z m-3041 -5 c14 -75 7 -85 -9 -14 -6 29 -14 62 -17 73 -4 14 -2 17 5 10 6 -5 15 -37 21 -69z m1710 38 c-18 -19 -67 -52 -108 -72 -66 -33 -86 -37 -162 -40 -48 -2 -95 0 -104 6 -12 6 7 8 58 4 105 -6 195 22 279 87 76 59 82 62 37 15z m1188 4 c-3 -7 -5 -2 -5 12 0 14 2 19 5 13 2 -7 2 -19 0 -25z m-3140 -15 c-3 -10 -5 -4 -5 12 0 17 2 24 5 18 2 -7 2 -21 0 -30z m310 15 c-3 -8 -6 -5 -6 6 -1 11 2 17 5 13 3 -3 4 -12 1 -19z m178 -63 c15 -44 31 -84 36 -89 5 -6 9 -17 9 -25 -1 -34 -80 155 -80 190 0 22 7 5 35 -76z m259 35 c5 -17 4 -20 -2 -10 -5 8 -13 26 -16 40 -5 17 -4 20 2 10 5 -8 13 -26 16 -40z m3153 3 c-3 -10 -5 -2 -5 17 0 19 2 27 5 18 2 -10 2 -26 0 -35z m-3612 -29 c15 -66 12 -88 -4 -28 -19 75 -24 99 -17 92 4 -3 13 -32 21 -64z m144 16 c0 -9 -4 -8 -9 5 -5 11 -9 27 -9 35 0 9 4 8 9 -5 5 -11 9 -27 9 -35z m2213 -43 c-30 -78 -101 -212 -108 -204 -6 5 16 57 79 191 57 121 74 128 29 13z m-2542 -6 c0 -3 -4 -1 -9 5 -5 5 -12 27 -15 49 l-6 40 15 -45 c8 -25 15 -47 15 -49z m247 67 c-3 -8 -6 -5 -6 6 -1 11 2 17 5 13 3 -3 4 -12 1 -19z m1623 -3 c-68 -72 -200 -126 -303 -124 l-62 2 78 7 c100 10 180 40 248 95 62 50 72 55 39 20z m1260 -37 c-55 -231 -175 -464 -343 -664 -71 -85 -204 -210 -214 -201 -2 3 24 31 58 63 154 147 237 249 318 394 73 129 119 245 166 414 20 72 32 67 15 -6z m937 40 c-3 -8 -6 -5 -6 6 -1 11 2 17 5 13 3 -3 4 -12 1 -19z m-4200 -25 c-3 -10 -5 -4 -5 12 0 17 2 24 5 18 2 -7 2 -21 0 -30z m87 -28 c4 -20 3 -25 -3 -15 -5 8 -11 31 -15 50 -7 41 7 13 18 -35z m3911 5 c-4 -28 -9 -49 -12 -47 -2 3 -1 28 3 56 4 28 9 50 11 47 3 -3 2 -28 -2 -56z m-4061 -25 l6 -50 -15 55 c-16 63 -18 81 -6 60 5 -8 12 -37 15 -65z m413 43 c-3 -7 -5 -2 -5 12 0 14 2 19 5 13 2 -7 2 -19 0 -25z m109 -105 c-5 -5 -46 116 -45 131 0 6 11 -20 25 -58 13 -38 22 -71 20 -73z m1578 126 c-15 -25 -129 -99 -181 -119 -68 -25 -187 -42 -217 -30 -15 6 -6 9 36 9 119 2 241 45 323 116 43 37 50 41 39 24z m1853 -26 c-3 -10 -5 -4 -5 12 0 17 2 24 5 18 2 -7 2 -21 0 -30z m70 0 c-3 -10 -5 -4 -5 12 0 17 2 24 5 18 2 -7 2 -21 0 -30z m-3920 -5 c-3 -8 -6 -5 -6 6 -1 11 2 17 5 13 3 -3 4 -12 1 -19z m350 0 c-3 -8 -6 -5 -6 6 -1 11 2 17 5 13 3 -3 4 -12 1 -19z m500 -104 c32 -46 38 -58 24 -50 -14 9 -101 156 -101 171 0 5 13 -13 29 -41 15 -29 37 -65 48 -80z m1133 86 c-56 -49 -146 -98 -213 -116 -74 -19 -178 -27 -207 -15 -20 8 -10 10 52 10 141 2 258 41 353 119 64 53 74 54 15 2z m1189 -29 c-46 -168 -131 -344 -236 -493 -63 -88 -273 -308 -294 -308 -5 0 43 53 108 118 189 188 303 370 384 612 23 69 43 128 46 133 12 21 10 0 -8 -62z m638 32 c-3 -10 -5 -4 -5 12 0 17 2 24 5 18 2 -7 2 -21 0 -30z m-3954 -48 c4 -25 4 -33 -2 -20 -4 11 -11 38 -14 60 -4 25 -4 33 2 20 4 -11 11 -38 14 -60z m85 10 c0 -16 -2 -15 -8 5 -4 14 -8 34 -8 45 0 16 2 15 8 -5 4 -14 8 -34 8 -45z m768 -43 c-5 -5 -30 50 -40 89 -3 13 5 0 19 -30 14 -30 23 -56 21 -59z m3171 71 c-3 -10 -5 -4 -5 12 0 17 2 24 5 18 2 -7 2 -21 0 -30z m-4073 -43 c5 -24 4 -30 -3 -20 -5 8 -12 33 -15 55 -8 48 8 19 18 -35z m921 34 c15 -37 19 -51 10 -43 -8 9 -35 79 -30 79 2 0 12 -16 20 -36z m113 -128 c19 -26 32 -49 29 -52 -9 -9 -128 190 -127 213 1 4 15 -19 33 -53 18 -33 47 -82 65 -108z m1154 114 c-58 -54 -168 -112 -247 -129 -55 -11 -123 -16 -199 -13 -84 3 -41 15 62 17 53 1 120 8 147 15 76 19 185 74 235 119 64 57 65 50 2 -9z m-2025 18 c-3 -8 -6 -5 -6 6 -1 11 2 17 5 13 3 -3 4 -12 1 -19z m-211 -43 c9 -53 -2 -42 -15 14 -5 24 -6 39 -1 35 5 -5 12 -27 16 -49z m4081 18 c-3 -10 -5 -4 -5 12 0 17 2 24 5 18 2 -7 2 -21 0 -30z m-3345 -100 c21 -44 57 -109 78 -142 22 -34 37 -61 35 -61 -20 0 -152 244 -169 310 l-6 25 12 -25 c6 -14 29 -62 50 -107z m1562 96 c-50 -54 -172 -128 -258 -156 -69 -22 -98 -26 -199 -26 -64 0 -120 3 -124 7 -4 3 1 14 11 24 14 12 20 14 23 5 3 -9 31 -13 91 -13 151 0 299 52 412 144 64 52 86 59 44 15z m1056 -71 c-76 -221 -201 -418 -371 -585 -86 -85 -129 -120 -129 -106 0 4 27 31 61 58 172 142 337 387 418 620 17 50 34 96 36 104 3 8 8 11 11 8 3 -3 -9 -47 -26 -99z m797 70 c-3 -7 -5 -2 -5 12 0 14 2 19 5 13 2 -7 2 -19 0 -25z m-127 -89 c-30 -119 -90 -298 -102 -306 -8 -4 -9 0 -3 13 27 65 86 252 102 322 10 46 19 77 21 69 2 -8 -6 -52 -18 -98z m-4358 66 c3 -14 1 -28 -3 -31 -5 -3 -9 1 -9 8 0 7 -3 24 -7 37 -4 16 -2 22 4 18 6 -4 13 -18 15 -32z m256 -30 c0 -16 -2 -15 -8 5 -4 14 -8 34 -8 45 0 16 2 15 8 -5 4 -14 8 -34 8 -45z m40 5 c0 -9 -3 -7 -8 5 -5 11 -8 29 -8 40 0 16 2 15 8 -5 4 -14 8 -32 8 -40z m4149 28 c-3 -7 -5 -2 -5 12 0 14 2 19 5 13 2 -7 2 -19 0 -25z m-4462 -133 c5 -20 4 -27 -3 -20 -10 10 -43 142 -41 167 1 11 13 -32 44 -147z m70 108 c3 -21 9 -49 12 -63 3 -14 3 -23 0 -20 -10 9 -36 131 -27 125 4 -3 11 -22 15 -42z m-131 -38 c2 -11 9 -33 15 -48 13 -34 14 -47 3 -47 -9 0 -43 137 -41 163 1 12 16 -32 23 -68z m224 20 c0 -16 -2 -15 -8 5 -11 34 -11 60 0 35 5 -11 8 -29 8 -40z m40 -5 c0 -9 -3 -7 -8 5 -5 11 -8 29 -8 40 0 16 2 15 8 -5 4 -14 8 -32 8 -40z m798 -37 c-5 -5 -36 74 -36 90 1 6 10 -10 20 -37 11 -28 18 -51 16 -53z m515 27 c29 -38 56 -70 61 -70 4 0 8 -5 8 -12 0 -18 -44 28 -90 93 -57 82 -42 74 21 -11z m1166 6 c-147 -140 -368 -203 -573 -165 -72 13 -78 17 -63 35 9 11 14 12 20 3 5 -8 46 -14 116 -17 171 -7 321 39 461 142 33 25 62 43 65 40 2 -2 10 2 17 11 7 8 15 15 19 15 3 -1 -24 -29 -62 -64z m1850 32 c-3 -7 -5 -2 -5 12 0 14 2 19 5 13 2 -7 2 -19 0 -25z m-4300 0 c-3 -8 -6 -5 -6 6 -1 11 2 17 5 13 3 -3 4 -12 1 -19z m1398 -101 c28 -27 68 -62 89 -78 21 -16 35 -29 31 -29 -28 0 -161 124 -209 195 l-28 40 34 -40 c18 -21 56 -61 83 -88z m2025 29 c-81 -206 -180 -356 -336 -513 -61 -62 -117 -113 -124 -113 -7 0 31 41 84 91 165 156 292 347 371 559 16 41 30 70 32 64 2 -6 -10 -46 -27 -88z m767 72 c-3 -8 -6 -5 -6 6 -1 11 2 17 5 13 3 -3 4 -12 1 -19z m70 -10 c-3 -7 -5 -2 -5 12 0 14 2 19 5 13 2 -7 2 -19 0 -25z m-4585 -45 c8 -38 14 -70 11 -73 -8 -9 -21 23 -28 68 -4 24 -9 51 -12 58 -3 8 -1 14 4 14 5 0 16 -30 25 -67z m218 27 c0 -13 -1 -13 -10 0 -5 8 -10 22 -10 30 0 13 1 13 10 0 5 -8 10 -22 10 -30z m1235 10 c9 -16 13 -30 11 -30 -3 0 -12 14 -21 30 -9 17 -13 30 -11 30 3 0 12 -13 21 -30z m-698 -2 c-3 -8 -6 -5 -6 6 -1 11 2 17 5 13 3 -3 4 -12 1 -19z m56 -23 c16 -45 14 -65 -2 -22 -16 42 -22 67 -18 67 3 0 12 -20 20 -45z m1053 -22 c18 -17 41 -36 51 -41 10 -6 15 -13 11 -17 -3 -4 -37 24 -75 61 -37 37 -57 58 -44 48 13 -10 39 -33 57 -51z m2681 45 c-3 -8 -6 -5 -6 6 -1 11 2 17 5 13 3 -3 4 -12 1 -19z m-3417 -23 c0 -5 -5 -3 -10 5 -5 8 -10 20 -10 25 0 6 5 3 10 -5 5 -8 10 -19 10 -25z m303 -10 c14 -25 24 -45 21 -45 -4 0 -54 77 -54 85 0 14 10 1 33 -40z m507 -22 c0 -7 -55 34 -71 54 -8 10 5 3 29 -16 23 -18 42 -35 42 -38z m2716 -5 c-41 -175 -129 -402 -223 -573 -56 -102 -134 -218 -155 -231 -13 -9 -9 -1 48 81 143 206 266 494 328 769 4 15 9 26 12 23 3 -2 -2 -34 -10 -69z m-151 25 c-9 -52 -65 -226 -71 -221 -2 3 7 36 20 75 13 39 30 96 37 127 14 62 25 77 14 19z m-4535 -23 c0 -20 -2 -22 -10 -10 -5 8 -10 26 -10 40 0 20 2 22 10 10 5 -8 10 -26 10 -40z m164 -10 c5 -23 4 -30 -2 -20 -6 8 -13 31 -16 50 -5 23 -4 30 2 20 6 -8 13 -31 16 -50z m615 -10 c0 -23 -15 7 -22 45 l-6 30 14 -30 c8 -16 14 -37 14 -45z m3828 48 c-3 -8 -6 -5 -6 6 -1 11 2 17 5 13 3 -3 4 -12 1 -19z m-3793 -38 c5 -17 4 -20 -2 -10 -5 8 -13 26 -16 40 -5 17 -4 20 2 10 5 -8 13 -26 16 -40z m1008 -19 c33 -31 70 -61 81 -68 12 -7 17 -12 10 -13 -15 0 -98 67 -143 115 -49 53 -19 33 52 -34z m2745 37 c-3 -8 -6 -5 -6 6 -1 11 2 17 5 13 3 -3 4 -12 1 -19z m-3818 -47 c11 -30 19 -57 17 -59 -4 -3 -46 102 -46 115 0 14 9 -4 29 -56z m429 34 c-3 -3 -9 2 -12 12 -6 14 -5 15 5 6 7 -7 10 -15 7 -18z m353 -7 c8 -15 8 -18 0 -14 -6 4 -16 16 -22 28 -8 15 -8 18 0 14 6 -4 16 -16 22 -28z m339 -3 c25 -30 3 -25 -26 6 -22 24 -24 29 -8 21 11 -6 27 -18 34 -27z m-240 0 c13 -14 21 -25 18 -25 -2 0 -15 11 -28 25 -13 14 -21 25 -18 25 2 0 15 -11 28 -25z m1204 0 c-146 -113 -291 -165 -459 -165 -70 0 -210 22 -222 34 -11 10 9 27 20 18 20 -16 115 -32 193 -32 147 0 303 47 416 125 34 24 64 42 67 39 2 -2 -4 -11 -15 -19z m1763 3 c-3 -8 -6 -5 -6 6 -1 11 2 17 5 13 3 -3 4 -12 1 -19z m-3410 -95 c-5 -4 -57 92 -57 103 0 5 14 -15 30 -45 17 -30 29 -56 27 -58z m3428 15 c-79 -271 -216 -540 -394 -768 -77 -100 -205 -235 -276 -293 -27 -22 3 13 67 79 245 248 411 498 526 789 34 85 49 130 89 268 2 10 7 17 9 15 2 -3 -7 -43 -21 -90z m-61 48 c-3 -15 -8 -25 -11 -23 -2 3 -1 17 3 31 3 15 8 25 11 23 2 -3 1 -17 -3 -31z m-3870 -40 c9 -27 14 -51 12 -53 -4 -4 -20 37 -37 91 -15 49 7 15 25 -38z m532 12 c8 -16 13 -28 10 -28 -5 0 -46 69 -46 78 0 8 15 -13 36 -50z m2500 5 c-8 -15 -15 -25 -16 -21 0 12 23 58 27 54 3 -2 -2 -17 -11 -33z m-2916 6 c0 -6 -4 -7 -10 -4 -5 3 -10 11 -10 16 0 6 5 7 10 4 6 -3 10 -11 10 -16z m339 -26 c12 -24 19 -43 16 -43 -5 0 -45 75 -45 86 0 11 6 2 29 -43z m801 10 c0 -7 -39 17 -46 28 -3 6 5 3 20 -6 14 -10 26 -19 26 -22z m875 2 c-44 -37 -180 -101 -255 -121 -130 -35 -450 -15 -425 26 3 5 22 2 43 -7 55 -23 258 -29 347 -10 95 21 170 50 246 97 74 45 86 49 44 15z m-2158 -57 c8 -16 10 -28 5 -28 -11 0 -42 72 -41 93 0 6 5 1 11 -13 5 -14 17 -37 25 -52z m3873 15 c-11 -17 -11 -17 -6 0 3 10 6 24 7 30 0 9 2 9 5 0 3 -7 0 -20 -6 -30z m-3790 6 c0 -6 -4 -7 -10 -4 -5 3 -10 11 -10 16 0 6 5 7 10 4 6 -3 10 -11 10 -16z m2470 17 c0 -2 -8 -10 -17 -17 -16 -13 -17 -12 -4 4 13 16 21 21 21 13z m-2605 -42 c8 -20 15 -42 15 -48 -1 -13 -25 30 -34 62 -11 35 2 26 19 -14z m2195 14 c-34 -29 -152 -83 -225 -103 -95 -26 -265 -31 -365 -11 -47 10 -87 19 -89 22 -12 12 11 12 59 -1 183 -49 426 -14 590 86 54 33 63 35 30 7z m-1516 -58 c21 -30 63 -78 93 -106 55 -51 55 -52 36 -70 -11 -11 -30 -25 -43 -33 -22 -13 -26 -11 -53 20 -16 19 -43 54 -60 79 -30 44 -29 44 33 -17 65 -63 106 -88 59 -35 -14 15 -38 45 -54 67 -26 37 -23 35 32 -17 34 -32 66 -58 73 -58 6 0 -13 28 -43 63 -49 57 -102 130 -122 167 -15 27 10 -3 49 -60z m3265 1 c-12 -34 -23 -60 -25 -58 -2 2 6 32 17 66 12 34 23 60 25 58 2 -2 -6 -32 -17 -66z m-3973 -28 c-6 -6 -36 64 -35 81 0 6 10 -9 21 -32 11 -24 17 -46 14 -49z m651 45 c44 -65 47 -72 35 -64 -11 7 -75 106 -68 106 3 0 17 -19 33 -42z m1708 32 c-3 -5 -20 -19 -38 -30 -32 -22 -32 -22 3 9 37 32 45 37 35 21z m-2396 -90 c0 -18 -24 25 -33 60 -5 19 -2 16 13 -10 11 -19 20 -42 20 -50z m-54 34 c21 -52 17 -67 -5 -19 -20 42 -23 55 -15 55 3 0 12 -16 20 -36z m2315 30 c0 -10 -165 -82 -230 -100 -114 -32 -460 -20 -460 16 0 4 26 1 58 -8 40 -11 96 -16 192 -16 154 1 247 21 365 78 82 40 75 37 75 30z m-2333 -97 c-5 -12 -19 17 -31 63 -4 16 1 12 14 -13 12 -21 19 -44 17 -50z m-37 19 c18 -33 21 -49 13 -57 -8 -8 -16 6 -31 50 -24 70 -18 73 18 7z m2343 29 c-36 -25 -164 -72 -247 -90 -62 -14 -107 -16 -215 -12 -131 5 -226 21 -216 37 2 4 28 0 57 -8 37 -11 97 -15 198 -15 161 0 252 18 365 72 66 32 91 39 58 16z m834 -60 c-58 -86 -180 -226 -247 -283 -35 -29 -64 -51 -67 -49 -2 2 50 58 115 123 65 65 142 156 172 200 30 45 57 78 59 72 1 -5 -13 -33 -32 -63z m-2210 14 c26 -28 54 -60 62 -72 12 -19 11 -19 -13 3 -34 30 -110 120 -102 120 3 0 27 -23 53 -51z m-994 -9 c27 -49 35 -90 19 -90 -5 0 -14 10 -20 23 -11 21 -11 21 -6 -5 5 -23 1 -29 -30 -43 -20 -9 -54 -18 -77 -19 -33 -2 -44 3 -60 22 -10 14 -19 37 -19 53 0 30 15 47 24 27 3 -7 3 -3 0 10 -4 17 -1 22 15 22 12 0 21 -6 21 -14 0 -8 5 -18 11 -22 8 -4 9 3 4 25 -5 24 -3 31 8 31 13 0 31 -33 28 -52 -1 -5 4 -8 9 -8 12 0 12 2 0 34 -8 21 -7 26 6 26 9 0 21 -13 27 -30 6 -16 15 -30 19 -30 11 0 10 5 -7 47 -17 41 -18 43 -7 43 4 0 20 -22 35 -50z m1032 20 c10 -11 16 -20 13 -20 -3 0 -13 9 -23 20 -10 11 -16 20 -13 20 3 0 13 -9 23 -20z m150 -20 c31 6 63 9 72 6 11 -4 14 -2 9 9 -4 12 -2 13 14 2 11 -6 20 -15 20 -20 0 -4 -4 -5 -10 -2 -18 11 -11 -1 12 -21 19 -15 20 -16 9 -1 -7 9 -10 17 -7 17 12 0 77 -53 72 -58 -3 -3 6 -19 20 -36 30 -35 15 -49 -19 -19 -45 40 -83 57 -133 59 -65 3 -96 -14 -74 -42 12 -16 12 -17 0 -6 -23 20 -43 15 -37 -10 6 -20 5 -20 -11 -5 -13 13 -14 19 -4 29 9 9 5 20 -20 47 -20 21 -23 27 -7 13 14 -12 28 -22 32 -22 16 0 5 36 -20 64 l-28 31 27 -23 c25 -23 29 -23 83 -12z m1181 15 c-33 -25 -186 -75 -280 -91 -157 -28 -457 3 -397 41 5 3 12 1 15 -3 12 -20 158 -35 284 -29 132 6 260 35 340 77 43 22 65 26 38 5z m1728 -76 c-196 -468 -544 -857 -991 -1108 -93 -52 -203 -104 -203 -96 0 2 53 31 119 65 135 69 290 169 406 263 97 79 264 246 340 342 123 153 257 378 325 547 13 32 25 56 27 54 2 -2 -8 -32 -23 -67z m-23 34 c-12 -20 -14 -14 -5 12 4 9 9 14 11 11 3 -2 0 -13 -6 -23z m-1701 2 c0 -8 -95 -46 -180 -72 -133 -39 -364 -43 -512 -7 -5 1 -11 2 -14 3 -4 0 -1 8 6 16 8 10 17 12 24 6 26 -21 157 -34 283 -28 129 6 277 37 341 72 27 14 52 19 52 10z m-1477 -74 c19 -20 24 -32 16 -37 -13 -7 -79 57 -79 76 0 15 30 -3 63 -39z m3153 12 c-8 -15 -15 -25 -16 -21 0 12 23 58 27 54 3 -2 -2 -17 -11 -33z m-35 4 c-10 -9 -11 -8 -5 6 3 10 9 15 12 12 3 -3 0 -11 -7 -18z m-1667 -21 c-29 -21 -126 -51 -224 -71 -100 -20 -311 -16 -398 8 -50 13 -77 7 -56 -13 21 -20 175 -42 299 -41 117 0 285 22 349 47 9 3 16 2 16 -4 0 -13 -133 -48 -235 -63 -119 -17 -341 2 -427 36 -13 5 -18 2 -18 -8 0 -45 364 -74 535 -43 50 10 99 19 110 22 15 4 17 3 5 -4 -8 -5 -49 -18 -90 -28 -109 -27 -383 -26 -492 3 -57 15 -78 17 -78 8 0 -21 148 -47 295 -52 103 -4 165 -1 234 11 52 9 96 15 98 13 2 -2 -34 -12 -79 -22 -111 -25 -331 -25 -443 -1 -135 30 -133 30 -112 13 51 -42 390 -66 536 -38 34 7 65 10 68 8 8 -9 -122 -28 -227 -34 -109 -6 -234 6 -335 32 -32 9 -60 13 -64 10 -11 -11 21 -22 116 -40 101 -19 278 -25 398 -13 52 5 62 4 40 -3 -51 -17 -284 -23 -373 -10 -72 11 -172 33 -210 46 -9 3 -6 15 13 42 14 21 25 45 25 55 0 9 4 19 9 22 5 4 12 24 16 46 7 44 19 57 38 42 48 -40 370 -41 517 -3 46 13 91 27 100 32 8 4 26 9 40 9 24 0 24 0 4 -14z m1642 -33 c-8 -15 -15 -25 -16 -21 0 12 23 58 27 54 3 -2 -2 -17 -11 -33z m-43 -8 c-3 -9 -8 -14 -10 -11 -3 3 -2 9 2 15 9 16 15 13 8 -4z m22 -107 c-122 -220 -232 -364 -406 -534 -172 -167 -359 -300 -569 -404 -116 -57 -89 -34 35 30 295 153 559 378 766 653 56 74 182 278 210 340 7 15 14 25 17 22 3 -2 -21 -51 -53 -107z m-2667 62 c52 -38 55 -49 5 -19 -70 42 -79 49 -62 49 9 0 35 -14 57 -30z m-224 5 c4 -13 2 -14 -14 -5 -23 13 -26 20 -6 20 8 0 16 -7 20 -15z m2825 -46 c-16 -34 -32 -59 -35 -57 -4 5 55 118 62 118 2 0 -10 -27 -27 -61z m64 46 c-3 -9 -8 -14 -10 -11 -3 3 -2 9 2 15 9 16 15 13 8 -4z m-2718 -16 c17 -11 57 -34 90 -51 59 -30 115 -68 100 -68 -14 0 -181 91 -210 115 -36 29 -22 33 20 4z m1575 18 c0 -2 -10 -12 -22 -23 l-23 -19 19 23 c18 21 26 27 26 19z m-1772 -18 c-2 -6 -8 -10 -13 -10 -5 0 -11 4 -13 10 -2 6 4 11 13 11 9 0 15 -5 13 -11z m2797 -46 c-90 -157 -220 -326 -331 -433 l-67 -65 61 75 c34 41 93 111 132 155 66 76 115 144 189 263 41 65 53 69 16 5z m-2556 -28 c221 -129 528 -193 796 -166 61 6 121 14 135 16 21 5 22 4 5 -3 -49 -22 -197 -35 -351 -29 -175 5 -277 26 -433 88 -97 38 -252 127 -259 149 -4 11 1 10 23 -4 15 -10 53 -33 84 -51z m2625 -2 c-160 -288 -401 -546 -697 -745 -49 -33 -86 -55 -83 -49 4 6 41 34 82 62 268 181 511 436 673 708 63 106 80 121 25 24z m-2826 -8 c1 -33 0 -35 -19 -24 -12 6 -30 8 -41 6 -22 -6 -48 1 -48 12 0 4 14 5 31 3 22 -3 30 -1 25 7 -5 7 2 11 18 11 20 0 24 4 19 17 -4 10 -2 14 4 10 5 -3 10 -22 11 -42z m46 -14 c-2 -3 -12 3 -22 13 -16 17 -16 18 5 5 12 -7 20 -15 17 -18z m2615 -3 c-36 -70 -179 -248 -279 -349 -145 -147 -299 -261 -465 -345 -71 -37 -141 -74 -155 -84 -28 -19 -161 -72 -259 -102 -80 -25 -274 -69 -279 -64 -8 9 39 26 138 50 302 72 602 221 846 419 110 90 338 328 402 420 52 76 74 99 51 55z m-2481 -11 c105 -67 298 -135 462 -163 72 -12 139 -15 278 -12 119 3 175 1 160 -5 -13 -5 -99 -12 -193 -14 -198 -6 -300 8 -462 62 -131 44 -293 126 -293 149 0 10 9 7 48 -17z m-652 -64 c38 -42 63 -73 56 -69 -15 9 -80 79 -113 119 -40 51 -12 27 57 -50z m3238 65 c-135 -234 -380 -493 -619 -658 -82 -56 -40 -15 73 71 182 140 403 379 517 558 14 23 28 41 31 41 3 0 2 -6 -2 -12z m-3164 -81 c41 -43 67 -75 58 -72 -9 4 -46 40 -84 82 -88 98 -71 91 26 -10z m1587 77 c-3 -3 -12 -4 -19 -1 -8 3 -5 6 6 6 11 1 17 -2 13 -5z m-1747 -23 c0 -4 20 -30 45 -57 25 -26 45 -48 45 -49 0 -1 -15 -1 -34 -2 -43 -1 -93 45 -81 74 5 10 7 24 6 31 -1 6 3 12 9 12 5 0 10 -4 10 -9z m1067 -21 c112 -35 274 -53 428 -48 83 3 124 2 100 -3 -70 -14 -317 -10 -406 7 -89 16 -219 52 -219 59 0 10 37 4 97 -15z m640 4 c-3 -3 -12 -4 -19 -1 -8 3 -5 6 6 6 11 1 17 -2 13 -5z m-1452 -72 c32 -29 56 -55 53 -57 -2 -3 -36 25 -74 61 -38 36 -62 61 -53 57 9 -4 42 -32 74 -61z m3416 45 c-10 -9 -11 -8 -5 6 3 10 9 15 12 12 3 -3 0 -11 -7 -18z m-2865 -12 c51 -47 285 -123 449 -145 44 -6 148 -11 230 -12 173 -1 140 -13 -46 -17 -150 -2 -293 18 -429 61 -98 31 -273 108 -283 125 -3 5 7 10 23 11 19 1 38 -6 56 -23z m2250 -34 c-186 -242 -428 -438 -710 -576 -118 -57 -190 -87 -176 -72 3 3 69 39 148 81 175 92 288 165 407 262 112 91 247 221 305 294 41 50 60 69 68 70 2 0 -17 -27 -42 -59z m-2721 -11 c43 -33 72 -60 65 -60 -12 0 -150 107 -150 116 0 9 10 2 85 -56z m1382 54 c-3 -3 -12 -4 -19 -1 -8 3 -5 6 6 6 11 1 17 -2 13 -5z m-1288 -71 c73 -53 115 -97 55 -59 -46 30 -132 96 -146 114 -17 21 -7 15 91 -55z m1248 61 c-3 -3 -12 -4 -19 -1 -8 3 -5 6 6 6 11 1 17 -2 13 -5z m-1196 -50 c35 -25 82 -55 104 -66 23 -13 34 -23 27 -26 -12 -4 -212 123 -212 134 0 11 22 0 81 -42z m40 21 c19 -14 69 -47 112 -72 82 -48 99 -70 25 -32 -48 24 -188 117 -188 124 0 11 18 4 51 -20z m104 -21 c146 -94 346 -174 520 -208 122 -23 123 -24 90 -25 -89 -3 -316 64 -470 138 -108 52 -249 141 -225 141 8 0 46 -21 85 -46z m67 5 c206 -120 423 -187 683 -209 l110 -9 -125 5 c-248 9 -511 90 -710 218 -76 49 -44 45 42 -5z m131 -19 c186 -91 344 -130 597 -149 l125 -10 -155 4 c-166 4 -277 23 -417 71 -84 28 -246 103 -278 128 -41 31 8 15 128 -44z m2118 -29 c-125 -140 -291 -285 -291 -252 0 5 4 11 9 13 24 9 223 187 271 243 30 36 59 65 64 65 4 0 -20 -31 -53 -69z m-36 17 c-62 -69 -208 -208 -214 -202 -3 3 18 27 47 52 30 26 83 77 120 115 68 69 97 91 47 35z m-175 8 c0 -2 -8 -10 -17 -17 -16 -13 -17 -12 -4 4 13 16 21 21 21 13z m-180 -9 c0 -2 -12 -14 -27 -28 l-28 -24 24 28 c23 25 31 32 31 24z m100 -1 c0 -2 -8 -10 -17 -17 -16 -13 -17 -12 -4 4 13 16 21 21 21 13z m116 -92 c-54 -52 -101 -92 -105 -89 -3 4 15 23 39 43 25 20 70 60 100 89 30 29 57 52 60 52 3 0 -39 -43 -94 -95z m-81 10 c-72 -68 -105 -91 -105 -76 0 5 29 30 64 56 34 25 71 55 81 66 10 11 21 20 24 20 3 -1 -25 -30 -64 -66z m5 52 c0 -5 -137 -118 -155 -129 -34 -18 -12 13 30 44 25 19 62 46 82 62 35 26 43 31 43 23z m-120 -43 c-69 -60 -120 -94 -169 -116 -25 -10 -59 -29 -76 -42 -49 -36 -113 -66 -120 -55 -3 6 -2 10 2 10 15 0 186 101 252 149 122 89 191 122 111 54z m-80 23 c0 -2 -8 -10 -17 -17 -16 -13 -17 -12 -4 4 13 16 21 21 21 13z m-753 -12 c-3 -3 -12 -4 -19 -1 -8 3 -5 6 6 6 11 1 17 -2 13 -5z m-50 -10 c-3 -3 -12 -4 -19 -1 -8 3 -5 6 6 6 11 1 17 -2 13 -5z m1042 -11 c-18 -22 -77 -75 -97 -87 -31 -18 -5 13 48 58 59 49 70 56 49 29z m-279 3 c0 -2 -8 -10 -17 -17 -16 -13 -17 -12 -4 4 13 16 21 21 21 13z m-1597 -50 c94 -37 179 -62 302 -89 16 -4 15 -5 -5 -6 -58 -2 -323 80 -400 124 -44 25 -11 16 103 -29z m-95 0 c62 -31 198 -79 292 -101 41 -10 70 -20 64 -22 -31 -10 -403 111 -419 138 -10 16 14 10 63 -15z m2662 10 c0 -2 -8 -10 -17 -17 -16 -13 -17 -12 -4 4 13 16 21 21 21 13z m-2710 -32 c29 -15 87 -39 129 -55 43 -16 66 -28 52 -29 -25 0 -237 86 -247 101 -9 16 12 10 66 -17z m-23 -36 c98 -46 127 -71 43 -38 -62 24 -150 69 -150 75 0 10 18 4 107 -37z m1562 38 c-11 -9 -89 -46 -89 -41 0 9 64 45 79 45 8 0 12 -2 10 -4z m76 -22 c-62 -39 -176 -96 -182 -90 -3 2 -2 10 2 16 8 14 126 73 132 66 3 -2 19 4 36 15 18 10 37 19 42 19 6 -1 -8 -12 -30 -26z m-1713 -34 c51 -27 86 -50 78 -50 -15 0 -157 74 -174 91 -20 19 6 8 96 -41z m-114 12 c15 -11 51 -32 80 -47 28 -16 50 -30 48 -33 -5 -5 -118 56 -151 82 -28 22 -8 20 23 -2z m-305 -34 c30 -24 67 -53 83 -66 16 -13 22 -20 14 -16 -19 10 -160 115 -160 120 0 10 14 1 63 -38z m33 20 l19 -23 -25 20 c-14 11 -27 21 -29 22 -2 2 0 3 6 3 5 0 18 -10 29 -22z m260 -30 c46 -28 84 -53 84 -56 0 -5 -103 53 -150 84 -63 43 -20 25 66 -28z m2120 40 c6 -7 -71 -38 -94 -38 -9 0 -35 -11 -57 -25 -50 -31 -51 -31 -49 2 1 32 31 54 81 60 21 2 39 5 40 7 5 5 73 -1 79 -6z m-2409 -86 c29 -20 52 -41 53 -45 0 -11 -74 43 -130 94 -31 29 -34 33 -10 15 19 -14 58 -43 87 -64z m241 29 c52 -33 72 -52 30 -30 -36 19 -128 81 -128 87 0 2 10 -2 23 -10 12 -9 46 -30 75 -47z m905 42 c-13 -2 -33 -2 -45 0 -13 2 -3 4 22 4 25 0 35 -2 23 -4z m1307 -24 c-133 -116 -462 -287 -640 -333 -25 -7 -25 -7 2 9 15 8 60 27 100 41 126 45 308 140 438 228 69 47 127 85 130 85 3 0 -11 -13 -30 -30z m700 27 c0 -2 -8 -10 -17 -17 -16 -13 -17 -12 -4 4 13 16 21 21 21 13z m-2984 -46 c32 -22 54 -40 51 -40 -9 0 -117 71 -117 76 0 9 12 2 66 -36z m-218 -44 c34 -27 60 -51 58 -54 -5 -4 -156 116 -156 124 0 6 13 -3 98 -70z m1065 67 c-7 -2 -19 -2 -25 0 -7 3 -2 5 12 5 14 0 19 -2 13 -5z m100 -10 c-13 -2 -33 -2 -45 0 -13 2 -3 4 22 4 25 0 35 -2 23 -4z m-993 -29 c22 -15 40 -29 40 -31 0 -5 -27 11 -75 44 -11 7 -16 13 -12 13 4 0 25 -12 47 -26z m-256 -18 c21 -18 55 -41 76 -51 50 -23 43 -34 -17 -28 -59 7 -103 43 -103 85 0 15 2 28 4 28 2 0 20 -15 40 -34z m2296 19 c0 -2 -10 -9 -22 -15 -22 -11 -22 -10 -4 4 21 17 26 19 26 11z m170 -15 c-32 -25 -229 -137 -255 -146 -11 -3 45 32 125 80 146 87 176 102 130 66z m770 16 c0 -2 -8 -10 -17 -17 -16 -13 -17 -12 -4 4 13 16 21 21 21 13z m-945 -36 c3 -5 -12 -18 -35 -30 -30 -15 -40 -17 -40 -7 0 7 15 20 33 29 17 8 33 16 34 17 1 0 4 -3 8 -9z m454 -63 c-2 -2 -24 -18 -49 -36 l-45 -33 39 36 c22 20 44 36 49 36 6 0 8 -1 6 -3z m-2804 -37 c10 -11 16 -20 13 -20 -3 0 -13 9 -23 20 -10 11 -16 20 -13 20 3 0 13 -9 23 -20z m2275 -88 c0 -23 -170 -92 -340 -137 -100 -26 -130 -31 -114 -16 5 4 49 18 99 30 94 23 256 81 315 112 42 22 40 21 40 11z m299 -57 c-28 -41 -70 -71 -132 -94 -13 -5 -34 -3 -52 4 l-29 13 59 38 c53 34 157 83 177 84 4 0 -6 -20 -23 -45z m-689 -14 c-24 -13 -97 -24 -85 -13 10 10 42 18 80 20 16 1 17 0 5 -7z m5 -38 c-28 -7 -61 -12 -75 -10 -17 1 -6 7 35 18 33 8 67 13 75 10 8 -3 -8 -11 -35 -18z m785 -67 c-8 -8 -51 -36 -95 -61 -70 -40 -75 -45 -42 -39 20 3 37 2 37 -2 0 -5 -16 -26 -35 -46 -30 -33 -40 -38 -80 -38 -45 0 -100 24 -90 40 3 5 35 20 73 34 37 14 105 48 152 75 92 54 102 58 80 37z m-530 -52 c0 -16 -235 -81 -355 -98 -87 -13 -36 10 75 32 58 12 141 33 185 46 91 27 95 28 95 20z m-507 -11 c-7 -2 -19 -2 -25 0 -7 3 -2 5 12 5 14 0 19 -2 13 -5z m-20 -60 c-7 -2 -21 -2 -30 0 -10 3 -4 5 12 5 17 0 24 -2 18 -5z m417 -7 c0 -17 -231 -62 -407 -80 l-128 -12 40 -19 c26 -12 64 -19 107 -19 38 -1 68 -4 68 -7 0 -4 -24 -14 -53 -23 -44 -14 -62 -15 -108 -5 -57 12 -79 29 -79 65 0 20 6 22 98 28 107 7 309 39 387 60 54 15 75 18 75 12z m-336 -25 c5 -8 -96 -21 -169 -21 -67 0 -21 15 57 19 40 1 75 4 77 7 7 7 30 4 35 -5z m50 -71 c-5 -5 -50 -12 -99 -14 l-90 -5 95 13 c52 7 97 14 100 14 2 1 0 -2 -6 -8z"/>
<path d="M1109 4373 c-13 -16 -12 -17 4 -4 9 7 17 15 17 17 0 8 -8 3 -21 -13z"/>
<path d="M1064 4338 l-19 -23 23 19 c12 11 22 21 22 23 0 8 -8 2 -26 -19z"/>
<path d="M984 4318 l-19 -23 23 19 c21 18 27 26 19 26 -2 0 -12 -10 -23 -22z"/>
<path d="M1539 3903 c-13 -16 -12 -17 4 -4 9 7 17 15 17 17 0 8 -8 3 -21 -13z"/>
<path d="M1499 3873 c-13 -16 -12 -17 4 -4 9 7 17 15 17 17 0 8 -8 3 -21 -13z"/>
<path d="M1449 3833 c-13 -16 -12 -17 4 -4 9 7 17 15 17 17 0 8 -8 3 -21 -13z"/>
<path d="M1454 3798 l-19 -23 23 19 c21 18 27 26 19 26 -2 0 -12 -10 -23 -22z"/>
<path d="M2500 3278 c-94 -8 -176 -30 -259 -69 -45 -21 -61 -33 -54 -40 7 -7 26 -3 63 16 88 45 193 67 310 68 130 0 217 -20 330 -76 117 -58 249 -187 306 -299 21 -43 45 -78 52 -78 7 0 11 3 9 8 -2 4 -13 25 -23 47 -125 276 -429 451 -734 423z"/>
<path d="M1619 3233 c-13 -16 -12 -17 4 -4 9 7 17 15 17 17 0 8 -8 3 -21 -13z"/>
<path d="M2460 3234 c-100 -18 -220 -60 -220 -76 0 -12 14 -10 61 12 24 11 51 19 59 19 8 0 -5 -9 -29 -20 -63 -28 -43 -35 28 -10 139 48 324 34 466 -34 110 -53 168 -108 276 -257 23 -32 32 -18 15 23 -30 73 -179 209 -276 252 -116 52 -253 73 -371 57 -85 -12 -119 -7 -53 7 22 4 91 8 154 7 95 -1 129 -5 195 -27 153 -50 288 -157 367 -290 40 -66 55 -84 64 -75 16 17 -65 139 -145 219 -122 122 -279 188 -461 194 -58 2 -116 2 -130 -1z"/>
<path d="M2485 3174 c-54 -7 -136 -27 -141 -36 -7 -11 0 -10 81 7 88 18 152 19 238 0 132 -28 264 -112 342 -217 15 -21 34 -38 42 -38 20 0 6 23 -58 94 -88 98 -218 166 -356 186 -71 10 -89 10 -148 4z"/>
<path d="M2462 3140 c-86 -13 -74 -23 18 -16 161 14 289 -30 417 -141 72 -63 83 -70 83 -55 0 25 -102 112 -176 149 -79 41 -108 51 -184 63 -72 11 -81 11 -158 0z"/>
<path d="M2520 3109 c-25 -3 -40 -7 -35 -8 6 -1 42 -6 81 -11 94 -12 156 -34 231 -81 70 -44 103 -51 58 -13 -94 79 -234 127 -335 113z"/>
<path d="M2508 3053 c12 -2 32 -2 45 0 12 2 2 4 -23 4 -25 0 -35 -2 -22 -4z"/>
<path d="M2533 2993 c9 -2 23 -2 30 0 6 3 -1 5 -18 5 -16 0 -22 -2 -12 -5z"/>
<path d="M1841 2624 c0 -11 3 -14 6 -6 3 7 2 16 -1 19 -3 4 -6 -2 -5 -13z"/>
<path d="M2052 2580 c0 -19 2 -27 5 -17 2 9 2 25 0 35 -3 9 -5 1 -5 -18z"/>
<path d="M1841 2484 c0 -11 3 -14 6 -6 3 7 2 16 -1 19 -3 4 -6 -2 -5 -13z"/>
<path d="M2540 2575 c-15 -18 -5 -35 20 -35 10 0 22 5 25 10 7 11 -12 40 -25 40 -4 0 -13 -7 -20 -15z"/>
<path d="M445 1680 c3 -5 8 -10 11 -10 2 0 4 5 4 10 0 6 -5 10 -11 10 -5 0 -7 -4 -4 -10z"/>
<path d="M4530 3405 c0 -5 5 -17 10 -25 5 -8 10 -10 10 -5 0 6 -5 17 -10 25 -5 8 -10 11 -10 5z"/>
<path d="M3799 513 c-13 -15 -12 -15 9 -4 23 12 28 21 13 21 -5 0 -15 -7 -22 -17z"/>
</g>
<desc>Created with Snap</desc><defs/></svg></svg></g>
            <g id="icon_name_and_slogan_gap">
            </g>
            <g class="name_and_slogan" id="name_and_slogan_id">
              <g class="name"><g id="nameDefaultGroup"><path d="M26.1 -41.6Q19.9 -41.6 14 -41.3Q8.1 -41 6.8 -40.6L2.7 -49L5.8 -56.1L8.7 -53.8L43.1 -53.8L47.5 -56.5L55.5 -45.7Q48.9 -38.7 23.5 -9.4L46.7 -9.4L50.2 -12.1L54.6 -3.5L51.6 3.9Q48.3 3.4 25.9 3.4Q7.1 3.4 3.4 3.8L3.4 -6.8L33.5 -41.4Q31.9 -41.6 26.1 -41.6zM83.3 -39.9Q90.7 -39.9 95.6 -36.9Q100.5 -33.9 102.9 -28.9Q105.3 -23.8 105.3 -17.6L105.3 -12L75.7 -12Q75.7 -10.7 76.8 -9.4Q77.8 -8.1 79.8 -7.3Q81.7 -6.5 84.2 -6.5Q87 -6.5 88.7 -7.2Q90.4 -7.8 91.7 -9.4L104.9 -7.6Q101.8 -0.9 96.9 2.1Q92 5 84.1 5Q76.7 5 71.6 2.1Q66.5 -0.8 63.9 -5.9Q61.3 -11 61.3 -17.4Q61.3 -23.8 63.7 -28.9Q66.2 -34 71.1 -36.9Q76.1 -39.9 83.3 -39.9zM83.3 -28.4Q80.7 -28.4 79 -27.4Q77.3 -26.5 76.5 -25.2Q75.7 -23.9 75.7 -22.8L90.9 -22.8Q90.9 -23.7 90.1 -25Q89.3 -26.4 87.5 -27.4Q85.8 -28.4 83.3 -28.4zM112.7 -49.4L109.4 -50L112 -54.6L126.3 -53.6L137.5 -37.4L146.6 -50.5L144.1 -51L147.7 -55.2L165.8 -53.6L145.9 -25.3L166.4 3.9L149.5 3.9L137.5 -13.2L125.4 3.9L108.5 3.9L129 -25.3L112.7 -49.4zM215.1 -38.8L215.1 3.8L211.4 3.8L211.4 0L209.9 0L209.9 3.8L206.1 3.8L206.1 0L204.8 0L204.8 3.8L201.1 3.8L201.1 0.1Q199.7 1.2 198 2.2Q196.2 3.3 194.7 3.9Q191.9 5 188.8 5Q185.9 5 183.1 4.3Q180 3.5 177.6 1.4Q175.4 -0.7 174.5 -3.7Q173.5 -7.1 173.5 -11.1L173.5 -36.9L170.6 -38.2L174.5 -42.3L187.9 -38.7L187.9 -14Q187.8 -11.1 189.5 -8.7Q190.4 -7.6 191.7 -7Q193 -6.4 194.3 -6.5Q195.8 -6.4 197.7 -7.1Q199.6 -7.8 201.1 -8.9L201.1 -36.4L197.9 -37.9L201.8 -42.3L215.1 -38.8z" style="" fill="#00586d" id="namepathdata"/></g></g>
              <g class="slogan"><g id="sloganDefaultGroup"/></g>
            </g>
            <g class="border">
            </g>
          </g>
          <defs id="defs">
            <mask xmlns="http://www.w3.org/2000/svg" id="mask">
                <rect id="showAll" fill="white" x="227.6" y="-61.75" width="72" height="72"/>
                <rect id="hideNameBg" fill="black" x="0" y="0" width="0" height="0" stroke-width="2" stroke="black"/>
                <rect id="hideSloganBg" fill="black" x="0" y="0" width="0" height="0" stroke-width="2" stroke="black"/>
            <path d="M26.1 -41.6Q19.9 -41.6 14 -41.3Q8.1 -41 6.8 -40.6L2.7 -49L5.8 -56.1L8.7 -53.8L43.1 -53.8L47.5 -56.5L55.5 -45.7Q48.9 -38.7 23.5 -9.4L46.7 -9.4L50.2 -12.1L54.6 -3.5L51.6 3.9Q48.3 3.4 25.9 3.4Q7.1 3.4 3.4 3.8L3.4 -6.8L33.5 -41.4Q31.9 -41.6 26.1 -41.6zM83.3 -39.9Q90.7 -39.9 95.6 -36.9Q100.5 -33.9 102.9 -28.9Q105.3 -23.8 105.3 -17.6L105.3 -12L75.7 -12Q75.7 -10.7 76.8 -9.4Q77.8 -8.1 79.8 -7.3Q81.7 -6.5 84.2 -6.5Q87 -6.5 88.7 -7.2Q90.4 -7.8 91.7 -9.4L104.9 -7.6Q101.8 -0.9 96.9 2.1Q92 5 84.1 5Q76.7 5 71.6 2.1Q66.5 -0.8 63.9 -5.9Q61.3 -11 61.3 -17.4Q61.3 -23.8 63.7 -28.9Q66.2 -34 71.1 -36.9Q76.1 -39.9 83.3 -39.9zM83.3 -28.4Q80.7 -28.4 79 -27.4Q77.3 -26.5 76.5 -25.2Q75.7 -23.9 75.7 -22.8L90.9 -22.8Q90.9 -23.7 90.1 -25Q89.3 -26.4 87.5 -27.4Q85.8 -28.4 83.3 -28.4zM112.7 -49.4L109.4 -50L112 -54.6L126.3 -53.6L137.5 -37.4L146.6 -50.5L144.1 -51L147.7 -55.2L165.8 -53.6L145.9 -25.3L166.4 3.9L149.5 3.9L137.5 -13.2L125.4 3.9L108.5 3.9L129 -25.3L112.7 -49.4zM215.1 -38.8L215.1 3.8L211.4 3.8L211.4 0L209.9 0L209.9 3.8L206.1 3.8L206.1 0L204.8 0L204.8 3.8L201.1 3.8L201.1 0.1Q199.7 1.2 198 2.2Q196.2 3.3 194.7 3.9Q191.9 5 188.8 5Q185.9 5 183.1 4.3Q180 3.5 177.6 1.4Q175.4 -0.7 174.5 -3.7Q173.5 -7.1 173.5 -11.1L173.5 -36.9L170.6 -38.2L174.5 -42.3L187.9 -38.7L187.9 -14Q187.8 -11.1 189.5 -8.7Q190.4 -7.6 191.7 -7Q193 -6.4 194.3 -6.5Q195.8 -6.4 197.7 -7.1Q199.6 -7.8 201.1 -8.9L201.1 -36.4L197.9 -37.9L201.8 -42.3L215.1 -38.8z" style="stroke-width: 0;" fill="#000000" id="masknamepathdata" stroke="#000000" paint-order="stroke" transform="matrix(1,0,0,1,0,0)"/></mask>
          
          </defs>
        </g>
        </svg>